<svg width="114" height="113" viewBox="0 0 114 113" fill="none" xmlns="http://www.w3.org/2000/svg">
<path fill-rule="evenodd" clip-rule="evenodd" d="M97.1082 72.335C99.0702 67.4299 100.164 62.0721 100.164 56.4501C100.164 55.3936 100.127 54.3748 100.013 53.3561C99.938 51.9223 99.7494 50.5262 99.523 49.1302H81.9401V43.395H79.8272H71.1489V42.3385L62.4707 37.3202C62.4707 37.3202 62.4707 32.5661 56.9242 32.1133C56.9242 32.1133 51.6795 32.1133 51.3399 37.358L42.5862 42.3385V43.4327H32.1723V49.1679H14.7404C14.514 50.564 14.3631 51.96 14.2499 53.3938C14.1744 54.4126 14.1367 55.4313 14.1367 56.4501C14.1367 62.0343 15.2309 67.4299 17.193 72.335H97.1082ZM52.5851 49.281H62.3953V67.8072H52.5851V49.281ZM68.6586 49.281H66.0929V67.8072H68.6586V49.281ZM73.9788 49.281H76.5446V67.8072H73.9788V49.281ZM82.7703 55.5067H80.2045V67.694H82.7703V55.5067ZM84.7323 55.5067H87.298V67.694H84.7323V55.5067ZM92.0898 55.5067H89.5241V67.694H92.0898V55.5067ZM94.1274 55.5067H96.6932V67.694H94.1274V55.5067ZM48.7365 49.281H46.1707V67.8072H48.7365V49.281ZM39.0773 49.281H41.643V67.8072H39.0773V49.281ZM33.9081 55.5067H31.3424V67.694H33.9081V55.5067ZM26.6636 55.5067H29.2293V67.694H26.6636V55.5067ZM24.6261 55.5067H22.0603V67.694H24.6261V55.5067ZM17.3439 55.5067H19.9096V67.694H17.3439V55.5067Z" fill="white"/>
<path d="M100.164 56.4499C100.164 63.7321 98.3533 70.5614 95.1839 76.5607C87.9772 90.1818 73.6392 99.4637 57.1506 99.4637C40.6619 99.4637 26.324 90.1818 19.1173 76.5607C15.9478 70.5614 14.1367 63.7321 14.1367 56.4499C14.1367 55.4311 14.1744 54.4124 14.2499 53.3936C15.8346 31.0566 34.4362 13.436 57.1506 13.436C79.8649 13.436 98.5042 31.0566 100.051 53.3559C100.127 54.3747 100.164 55.3934 100.164 56.4499Z" stroke="white" stroke-width="1.13194" stroke-miterlimit="10"/>
<path d="M17.0057 84.1052L13.0061 84.973L11.6855 83.0487L11.7987 82.9733L11.9119 83.1242C12.0251 83.2751 12.1006 83.3506 12.2138 83.426C12.2892 83.4638 12.3647 83.4638 12.4779 83.4638C12.5534 83.4638 12.7043 83.3506 12.9307 83.1996L16.0624 81.049C16.2888 80.898 16.4397 80.7471 16.4774 80.7094C16.5152 80.6339 16.5529 80.5585 16.5152 80.4453C16.5152 80.3321 16.4397 80.2189 16.3642 80.0679L16.2511 79.917L16.3642 79.8416L18.0622 82.2941L17.949 82.3696L17.8358 82.2186C17.7226 82.0677 17.6471 81.9922 17.5339 81.9168C17.4585 81.8791 17.383 81.879 17.2698 81.879C17.1943 81.879 17.0434 81.9922 16.817 82.1432L13.308 84.558L18.8923 83.426L18.9677 83.5015L15.9492 88.2934L19.2696 85.9918C19.496 85.8409 19.6469 85.7277 19.6846 85.6899C19.7978 85.5767 19.8355 85.4635 19.8355 85.3126C19.8355 85.1617 19.7601 84.973 19.6092 84.7466L19.7223 84.6712L20.8543 86.2936L20.7411 86.3691L20.7034 86.3314C20.6279 86.2182 20.5524 86.1427 20.4392 86.0672C20.326 85.9918 20.2506 85.954 20.1374 85.954C20.0619 85.954 19.9487 85.954 19.7978 86.0295C19.7601 86.0295 19.6469 86.105 19.4205 86.2559L16.4397 88.3311C16.2133 88.4821 16.0624 88.5952 16.0247 88.6707C15.9869 88.7462 15.9492 88.8216 15.9869 88.9348C15.9869 89.048 16.0624 89.1612 16.1379 89.3121L16.2511 89.4631L16.1379 89.5385L14.8173 87.6142L17.0057 84.1052Z" fill="white"/>
<path d="M14.892 77.0122L15.043 76.9368L16.439 79.6157L16.2881 79.6912L16.2126 79.5402C16.1372 79.3893 16.0617 79.2761 15.9485 79.2384C15.8731 79.2007 15.7976 79.1629 15.6844 79.2007C15.6089 79.2007 15.458 79.2761 15.1939 79.3893L11.8358 81.1627C11.5717 81.3136 11.4207 81.3891 11.383 81.4645C11.3453 81.54 11.3076 81.6155 11.3076 81.7287C11.3076 81.8419 11.3453 81.955 11.4207 82.106L11.4962 82.2569L11.3453 82.3324L9.94922 79.6534L10.1001 79.578L10.1756 79.7289C10.2511 79.8798 10.3265 79.993 10.4397 80.0307C10.5152 80.0685 10.5907 80.1062 10.7038 80.1062C10.7793 80.1062 10.9302 80.0307 11.1944 79.9175L14.5525 78.1442C14.8166 77.9932 14.9675 77.9178 15.0052 77.8423C15.043 77.7669 15.0807 77.6914 15.0807 77.5782C15.0807 77.465 15.043 77.3518 14.9675 77.2009L14.892 77.0122Z" fill="white"/>
<path d="M7.98633 75.3893L9.72197 74.597L9.79744 74.7479C9.38239 75.012 9.11827 75.3516 8.96735 75.7666C8.81642 76.1817 8.81642 76.559 8.96735 76.8986C9.08054 77.1627 9.23147 77.3514 9.45785 77.4268C9.64651 77.54 9.8729 77.54 10.0616 77.4646C10.1748 77.4268 10.2879 77.3514 10.3257 77.2382C10.4011 77.125 10.4766 76.9363 10.5521 76.7099C10.5898 76.559 10.6275 76.2194 10.6653 75.6534C10.703 74.8988 10.8162 74.3706 11.0048 74.031C11.1935 73.6914 11.4576 73.465 11.7972 73.3141C12.25 73.1254 12.7028 73.1254 13.1555 73.3518C13.6083 73.5782 13.9479 73.9178 14.1743 74.4838C14.2497 74.6347 14.2875 74.8234 14.3252 74.9743C14.3629 75.1252 14.3629 75.3516 14.3629 75.6157C14.3629 75.7666 14.3629 75.8798 14.4007 75.9553C14.4384 76.0308 14.4761 76.0685 14.5516 76.144C14.6271 76.1817 14.7403 76.2194 14.8535 76.2194L14.9289 76.3703L12.9291 77.2004L12.8537 77.0495C13.3819 76.7099 13.7215 76.2949 13.8724 75.8421C14.0234 75.3893 14.0234 74.9743 13.8724 74.597C13.7592 74.2951 13.5706 74.1065 13.3442 73.9933C13.1178 73.8801 12.8914 73.8801 12.665 73.9555C12.5518 73.9933 12.4386 74.1065 12.3254 74.2197C12.25 74.3329 12.1745 74.4838 12.1368 74.6724C12.0991 74.8611 12.0613 75.1629 12.0236 75.578C11.9859 76.144 11.9481 76.5967 11.8727 76.8609C11.7972 77.125 11.684 77.3891 11.5331 77.5778C11.3822 77.7664 11.1558 77.9173 10.9294 78.0305C10.5143 78.2192 10.0993 78.2192 9.64651 78.0305C9.23147 77.8419 8.89188 77.5023 8.70323 77.0495C8.62776 76.8609 8.59003 76.7099 8.5523 76.5213C8.51457 76.3703 8.51457 76.2194 8.5523 75.993C8.5523 75.7666 8.5523 75.6534 8.51457 75.578C8.47684 75.5025 8.43911 75.4648 8.40137 75.4271C8.32591 75.3893 8.21272 75.4271 8.06179 75.4271L7.98633 75.3893Z" fill="white"/>
<path d="M9.94919 71.0882L11.4962 70.6354C11.798 70.56 11.9867 70.4845 12.0621 70.409C12.1376 70.3336 12.1753 70.2581 12.1753 70.1449C12.2131 70.0317 12.1753 69.8431 12.0999 69.6167L12.2508 69.579L13.0809 72.4088L12.93 72.4465C12.8545 72.1824 12.779 72.0315 12.7036 71.956C12.6281 71.8806 12.5527 71.8428 12.4772 71.8051C12.4017 71.8051 12.2131 71.8428 11.9112 71.9183L8.32673 72.937C8.02488 73.0125 7.83623 73.088 7.76076 73.1634C7.6853 73.2389 7.64757 73.3144 7.64757 73.4276C7.60984 73.5408 7.64757 73.7294 7.72303 73.9558L7.57211 73.9935L6.81748 71.4278C6.62882 70.7486 6.51562 70.2581 6.51562 69.9185C6.51562 69.579 6.62882 69.2771 6.81748 69.013C7.00613 68.7489 7.27025 68.5602 7.60984 68.4847C8.02488 68.3715 8.4022 68.4093 8.74178 68.6357C8.96817 68.7866 9.15683 69.013 9.34548 69.3148L10.817 67.466C11.0057 67.2396 11.1189 67.0509 11.1566 66.9755C11.1943 66.8246 11.2321 66.7114 11.1943 66.5604L11.3453 66.5227L11.8358 68.2584L9.83599 70.7486L9.94919 71.0882ZM7.27025 71.8806L9.68507 71.1637L9.6096 70.9373C9.49641 70.56 9.38321 70.2958 9.27002 70.1072C9.15683 69.9563 8.96817 69.8431 8.77951 69.7676C8.55312 69.7299 8.32673 69.7299 8.02488 69.8053C7.60984 69.9185 7.30799 70.1072 7.19479 70.3713C7.04387 70.6354 7.04386 70.975 7.15706 71.4278L7.27025 71.8806Z" fill="white"/>
<path d="M5.27034 65.0513L4.96849 62.1082H5.11942V62.2591C5.15715 62.4855 5.19488 62.6364 5.23261 62.7119C5.27034 62.7874 5.3458 62.8251 5.459 62.8628C5.53446 62.9006 5.76085 62.9006 6.0627 62.8628L8.85483 62.561C9.38307 62.5232 9.68492 62.4478 9.87358 62.3346C10.0245 62.2214 10.1377 62.1082 10.2509 61.9195C10.3264 61.7309 10.3641 61.5045 10.3264 61.2404C10.2886 60.9385 10.2132 60.6744 10.0245 60.4857C9.87358 60.2971 9.64719 60.1462 9.38307 60.0707C9.11895 59.9952 8.7039 59.9952 8.1002 60.033L5.76085 60.2594C5.49673 60.2971 5.30807 60.3348 5.23261 60.4103C5.11942 60.4857 5.04395 60.5612 5.04395 60.6367C5.00622 60.7876 4.96849 60.9385 5.00622 61.1649H4.8553L4.62891 59.2029H4.77983V59.3161C4.77983 59.467 4.8553 59.6179 4.93076 59.6934C5.00622 59.8066 5.11942 59.8443 5.23261 59.882C5.30807 59.9198 5.49673 59.9198 5.72312 59.882L7.94927 59.6557C8.62844 59.5802 9.11895 59.5802 9.4208 59.6179C9.72265 59.6934 10.0245 59.8443 10.3264 60.1839C10.6282 60.4857 10.7791 60.9385 10.8546 61.5422C10.8923 62.0327 10.8923 62.4101 10.7791 62.7119C10.6282 63.0892 10.4395 63.3911 10.1754 63.5797C9.91131 63.7684 9.53399 63.8816 9.08122 63.9193L6.28909 64.2212C5.94951 64.2589 5.76085 64.2966 5.68539 64.3344C5.60992 64.3721 5.53446 64.4476 5.49673 64.5607C5.459 64.6739 5.459 64.8249 5.49673 65.0513H5.27034Z" fill="white"/>
<path d="M4.66602 56.2974L8.28823 53.543L5.83569 53.4675C5.49611 53.4675 5.26972 53.5052 5.11879 53.5807C4.96787 53.6939 4.85467 53.9203 4.85467 54.2599H4.70375L4.74148 52.3733H4.8924C4.93014 52.5997 4.96787 52.7883 5.0056 52.8638C5.04333 52.9393 5.11879 53.0147 5.23199 53.0525C5.34518 53.0902 5.53384 53.1279 5.79796 53.1279L10.5899 53.2411V53.392L5.7225 57.1652L9.38245 57.2407C9.72203 57.2407 9.94842 57.1652 10.0616 57.0143C10.1748 56.8633 10.2503 56.7124 10.2503 56.486V56.3351H10.4012L10.3635 58.3726H10.2125C10.2125 58.0707 10.1748 57.8444 10.0239 57.6934C9.91069 57.5802 9.6843 57.5048 9.38245 57.5048L5.34518 57.3916L5.19426 57.5048C5.04333 57.618 4.93014 57.7312 4.8924 57.8066C4.85467 57.8821 4.81694 58.033 4.81694 58.2217H4.66602V56.2974Z" fill="white"/>
<path d="M10.8164 49.3172L10.9673 49.355L10.59 52.3358L10.4391 52.298L10.4768 52.1094C10.5146 51.9584 10.4768 51.8075 10.4391 51.6943C10.4014 51.6189 10.3636 51.5434 10.2504 51.5057C10.175 51.4679 10.0241 51.4302 9.7222 51.3925L5.98679 50.9397C5.68494 50.902 5.49628 50.902 5.42082 50.902C5.34536 50.9397 5.26989 50.9774 5.19443 51.0529C5.11897 51.1284 5.08124 51.2793 5.08124 51.4302L5.0435 51.6189L4.89258 51.5811L5.26989 48.6003L5.42082 48.6381L5.38309 48.8267C5.34536 48.9777 5.38309 49.1286 5.42082 49.2418C5.45855 49.3172 5.49628 49.3927 5.60948 49.4304C5.68494 49.4682 5.83586 49.5059 6.13772 49.5436L9.87313 49.9964C10.175 50.0341 10.3636 50.0341 10.4391 50.0341C10.5146 49.9964 10.59 49.9587 10.6655 49.8832C10.741 49.8078 10.7787 49.6568 10.7787 49.5059L10.8164 49.3172Z" fill="white"/>
<path d="M6.66693 41.9597L6.81785 41.9974C6.81785 42.2238 6.85558 42.4125 7.00651 42.6012C7.1197 42.7521 7.38382 42.9785 7.87433 43.3558L11.7229 46.2611L11.6852 46.412L6.78012 47.3176C6.17642 47.4308 5.83683 47.5062 5.72364 47.5817C5.61045 47.6572 5.53498 47.7704 5.45952 47.9967L5.30859 47.959L5.9123 45.2801L6.06322 45.3178L6.02549 45.3933C5.98776 45.6197 5.95003 45.8083 5.98776 45.9215C6.02549 45.997 6.06322 46.0347 6.13869 46.0724C6.17642 46.0724 6.25188 46.0724 6.32734 46.0724C6.40281 46.0724 6.59146 46.0347 6.93105 45.9592L9.98729 45.3933L7.76114 43.7331C7.49702 43.5444 7.30836 43.3935 7.2329 43.3558C7.1197 43.3181 7.04424 43.2803 6.96878 43.2426C6.89331 43.2426 6.81785 43.2426 6.74239 43.2426C6.66693 43.2803 6.59146 43.318 6.55373 43.3935C6.47827 43.5067 6.40281 43.6576 6.36507 43.8463L6.21415 43.8086L6.66693 41.9597Z" fill="white"/>
<path d="M7.9875 39.2429L10.2137 40.0352L10.2514 39.922C10.3646 39.5825 10.3646 39.2806 10.2137 39.0542C10.0627 38.8278 9.76088 38.6014 9.38356 38.4128L9.42129 38.2619L12.2512 39.2806L12.2134 39.4315C11.9116 39.3561 11.6097 39.3183 11.3833 39.3561C11.1569 39.3938 10.9683 39.4693 10.8551 39.5825C10.7419 39.6957 10.6287 39.8843 10.5532 40.1484L12.0625 40.7144C12.3643 40.8276 12.553 40.8653 12.6285 40.8653C12.7039 40.8653 12.7794 40.8276 12.8549 40.7899C12.9303 40.7521 12.9681 40.6389 13.0435 40.488L13.1567 40.1484C13.3454 39.6579 13.3831 39.2051 13.2699 38.7901C13.1567 38.4128 12.8549 38.0355 12.4398 37.7336L12.4775 37.5827L14.1 38.4505L12.4021 43.1292L12.2512 43.0915L12.3266 42.9028C12.4021 42.7519 12.4021 42.601 12.3643 42.4878C12.3643 42.4123 12.3266 42.3369 12.2134 42.2614C12.1757 42.2237 11.987 42.1482 11.7229 42.035L8.17616 40.7144C7.94977 40.6389 7.79884 40.5635 7.72338 40.5635C7.61018 40.5635 7.53472 40.5635 7.45926 40.6389C7.34606 40.7144 7.2706 40.8276 7.19514 41.0163L7.11968 41.2049L6.96875 41.1672L8.62893 36.6394L10.2137 37.2431L10.1382 37.394C9.72315 37.3186 9.38356 37.3186 9.19491 37.394C8.96852 37.4695 8.77986 37.6204 8.5912 37.8468C8.47801 37.96 8.36481 38.2619 8.21389 38.6392L7.9875 39.2429Z" fill="white"/>
<path d="M12.9294 34.7907L14.3632 35.5454C14.6273 35.6963 14.816 35.7718 14.9292 35.7718C15.0046 35.7718 15.1178 35.734 15.1933 35.6963C15.2687 35.6208 15.3819 35.4699 15.4951 35.2435L15.6461 35.319L14.2877 37.9225L14.1368 37.847C14.25 37.6206 14.3255 37.4319 14.3255 37.3187C14.3255 37.2056 14.2877 37.1301 14.25 37.0546C14.2123 36.9792 14.0236 36.866 13.7595 36.7528L10.4391 35.0549C10.175 34.9039 9.98634 34.8285 9.87315 34.8285C9.79768 34.8285 9.68449 34.8662 9.60903 34.9039C9.53356 34.9794 9.42037 35.1303 9.30718 35.3567L9.15625 35.2812L10.4014 32.9042C10.7032 32.3005 11.0051 31.8477 11.2315 31.6213C11.4579 31.3949 11.7597 31.244 12.0616 31.1685C12.4012 31.0931 12.703 31.1685 13.0049 31.3194C13.3822 31.5081 13.6086 31.81 13.7218 32.225C13.7972 32.4891 13.7972 32.791 13.684 33.1306L16.0611 32.791C16.363 32.7532 16.5516 32.7155 16.6648 32.6778C16.778 32.6023 16.8912 32.5269 16.9667 32.3759L17.1176 32.4514L16.2498 33.9984L13.0803 34.4512L12.9294 34.7907ZM10.4014 33.4701L12.6275 34.6398L12.7407 34.4134C12.9294 34.0738 13.0426 33.772 13.0426 33.5833C13.0803 33.3947 13.0426 33.1683 12.8917 32.9796C12.7785 32.791 12.5898 32.64 12.3257 32.4891C11.9484 32.3005 11.6088 32.225 11.3069 32.3005C11.0428 32.3759 10.7787 32.64 10.59 33.0174L10.4014 33.4701Z" fill="white"/>
<path d="M14.4393 25.9617L16.0617 26.9804L15.9485 27.1313C15.4957 26.9427 15.0807 26.8672 14.6656 26.9804C14.2506 27.0936 13.911 27.2823 13.7224 27.5841C13.5714 27.8105 13.496 28.0369 13.5337 28.2633C13.5714 28.4897 13.6846 28.6406 13.8356 28.7538C13.9487 28.8293 14.0619 28.867 14.1751 28.867C14.3261 28.867 14.5147 28.8293 14.7034 28.7538C14.8543 28.6783 15.1562 28.5274 15.6467 28.2633C16.2881 27.886 16.8163 27.6973 17.1937 27.6596C17.571 27.6219 17.9105 27.735 18.2124 27.9237C18.6274 28.1878 18.8538 28.5651 18.9293 29.0934C19.0048 29.5839 18.8916 30.0744 18.552 30.5649C18.4388 30.7158 18.3256 30.829 18.2124 30.9422C18.0992 31.0554 17.9105 31.1686 17.6842 31.3195C17.571 31.395 17.4578 31.4705 17.42 31.5459C17.3823 31.6969 17.3823 31.7723 17.3823 31.8855C17.3823 31.9987 17.42 32.0742 17.4955 32.1874L17.3823 32.3383L15.5712 31.1309L15.6467 31.0177C16.2126 31.2441 16.7409 31.3195 17.1937 31.2063C17.6464 31.0931 17.986 30.8668 18.2501 30.5272C18.4388 30.2631 18.5143 29.9989 18.4765 29.7725C18.4388 29.5084 18.3256 29.3198 18.1369 29.2066C18.0237 29.1311 17.9105 29.0934 17.7596 29.0934C17.6087 29.0934 17.4578 29.0934 17.2691 29.1688C17.0805 29.2443 16.8163 29.3575 16.4768 29.5462C15.9862 29.848 15.5712 30.0367 15.3071 30.1121C15.043 30.1876 14.7788 30.2253 14.5147 30.2253C14.2506 30.2253 14.0242 30.1121 13.7978 29.9612C13.4205 29.6971 13.1941 29.3575 13.1187 28.9047C13.0432 28.4519 13.1564 27.9992 13.4205 27.5841C13.5337 27.4332 13.6469 27.2823 13.7978 27.1691C13.911 27.0936 14.0242 26.9804 14.2129 26.8672C14.4015 26.754 14.5147 26.6786 14.5524 26.6031C14.5902 26.5276 14.5902 26.4899 14.5902 26.4144C14.5902 26.339 14.5147 26.2635 14.4015 26.1503L14.4393 25.9617Z" fill="white"/>
<path d="M21.5708 26.1499L21.684 26.2631L19.7974 28.6024L19.6842 28.4892L19.7974 28.3383C19.9106 28.2251 19.9483 28.0742 19.986 27.961C19.986 27.8855 19.986 27.8101 19.9483 27.6969C19.9106 27.6214 19.7974 27.5082 19.571 27.3196L16.6279 24.9425C16.4016 24.7538 16.2506 24.6406 16.1752 24.6406C16.0997 24.6029 16.0242 24.6406 15.9111 24.6784C15.7979 24.7161 15.7224 24.7916 15.6092 24.9425L15.496 25.0934L15.3828 24.9802L17.2694 22.6409L17.3826 22.7541L17.2694 22.905C17.1562 23.0182 17.1185 23.1691 17.0807 23.2823C17.0807 23.3578 17.0807 23.4332 17.1185 23.5464C17.1562 23.6219 17.2694 23.7351 17.4958 23.9237L20.4388 26.3008C20.6652 26.4895 20.8161 26.6027 20.8916 26.6027C20.9671 26.6404 21.0425 26.6027 21.1557 26.5649C21.2689 26.5272 21.3444 26.4517 21.4576 26.3008L21.5708 26.1499Z" fill="white"/>
<path d="M21.3814 18.2263L22.4756 19.3205L22.3624 19.4337C22.0605 19.2451 21.7964 19.1319 21.6078 19.0941C21.4191 19.0564 21.2304 19.0941 21.004 19.1696C20.8909 19.2073 20.7399 19.3205 20.5513 19.5092L20.2494 19.811L23.4189 22.905C23.6452 23.0937 23.7584 23.2446 23.8339 23.2446C23.9094 23.2823 23.9848 23.2823 24.098 23.2446C24.2112 23.2069 24.3244 23.1314 24.4376 23.0182L24.5885 22.8673L24.7017 22.9805L22.5888 25.1312L22.4756 25.018L22.6642 24.9425C22.7774 24.8293 22.8529 24.7161 22.8906 24.6029C22.9284 24.5275 22.8906 24.452 22.8529 24.3388C22.8152 24.2633 22.702 24.1502 22.5133 23.9238L19.3439 20.8298L19.042 21.1316C18.7779 21.3958 18.627 21.6599 18.627 21.924C18.627 22.2636 18.7402 22.6032 19.0043 22.9427L18.8911 23.0182L17.7969 21.924L21.3814 18.2263Z" fill="white"/>
<path d="M26.8524 13.8123L26.9656 13.9254C26.8147 14.0764 26.7392 14.1896 26.7392 14.3405C26.7015 14.5292 26.7392 14.9065 26.8147 15.5102L27.1166 17.925L27.9844 19.0192C28.173 19.2456 28.2862 19.3965 28.3617 19.4342C28.4372 19.472 28.5126 19.472 28.6258 19.472C28.739 19.472 28.8522 19.3965 28.9654 19.321L29.2295 19.1324L29.3427 19.2456L26.8147 21.2454L26.7015 21.1322L26.9279 20.9435C27.0788 20.8303 27.1543 20.7171 27.192 20.6416C27.2298 20.5662 27.2298 20.4907 27.192 20.3775C27.192 20.3021 27.0788 20.1511 26.8902 19.9247L26.1733 19.0192L23.5698 17.925C23.0416 17.6986 22.7397 17.6231 22.5888 17.6231C22.4379 17.6231 22.3247 17.6986 22.1737 17.7741L22.0605 17.6609L24.2112 15.9629L24.3244 16.0761L24.2112 16.1516C24.098 16.2648 24.0226 16.3403 23.9849 16.4157C23.9471 16.4912 23.9849 16.5667 23.9849 16.6044C24.0603 16.6798 24.2867 16.8308 24.7395 16.9817L26.7392 17.8118L26.4751 15.812C26.3997 15.3215 26.3242 15.0197 26.2487 14.9065C26.211 14.831 26.1355 14.831 26.0601 14.831C25.9469 14.831 25.7582 14.9065 25.5696 15.0574L25.4564 14.9442L26.8524 13.8123Z" fill="white"/>
<path d="M31.3051 11.4725L32.4748 13.51L32.6257 13.4346C32.8521 13.3214 33.003 13.1704 33.1162 13.0195C33.2294 12.8686 33.2671 12.6799 33.2671 12.4913C33.2671 12.2649 33.2294 12.0385 33.1162 11.7366L33.2294 11.6612L34.6632 14.1892L34.55 14.2647C34.2481 13.8119 33.9463 13.5855 33.6444 13.5478C33.3426 13.51 33.0785 13.5855 32.8143 13.7364L32.6634 13.8119L33.5312 15.3589C33.6822 15.623 33.7954 15.7739 33.8331 15.8116C33.9085 15.8494 33.984 15.8871 34.0972 15.8871C34.2104 15.8871 34.3236 15.8494 34.4745 15.7739L34.6254 15.6984L34.7009 15.8494L32.0974 17.3209L32.022 17.17L32.1729 17.0945C32.3238 17.019 32.437 16.9059 32.4748 16.8304C32.5125 16.7549 32.5502 16.6795 32.5125 16.5663C32.5125 16.4908 32.437 16.3399 32.2861 16.0758L30.4373 12.7931C30.2863 12.529 30.1731 12.3781 30.1354 12.3403C30.0599 12.3026 29.9845 12.2649 29.8713 12.2649C29.7581 12.2649 29.6449 12.3026 29.494 12.3781L29.343 12.4535L29.2676 12.3026L33.4935 9.92554L34.2859 11.3593L34.1349 11.4348C33.9085 11.1329 33.6822 10.9066 33.4558 10.8311C33.2294 10.7556 32.9653 10.7556 32.6634 10.8311C32.5125 10.8688 32.2106 11.0197 31.7956 11.2461L31.3051 11.4725Z" fill="white"/>
<path d="M37.2291 8.11399C38.0591 7.73667 38.8515 7.69894 39.6061 8.0008C40.3608 8.30265 40.889 8.86862 41.1909 9.66098C41.455 10.3401 41.4927 11.0193 41.3418 11.6985C41.0777 12.604 40.5117 13.2455 39.5307 13.6228C38.5874 14.0001 37.6818 14.0001 36.9272 13.5473C36.3235 13.2077 35.833 12.6795 35.5689 11.9626C35.2293 11.1702 35.267 10.4156 35.5689 9.66098C35.8707 8.94408 36.4367 8.41584 37.2291 8.11399ZM37.38 8.34038C36.8895 8.52904 36.6254 8.94408 36.5876 9.54778C36.5499 10.0383 36.7008 10.6797 37.0027 11.4344C37.38 12.3399 37.795 12.9436 38.2855 13.2455C38.6251 13.4719 39.0024 13.4719 39.4175 13.3209C39.6816 13.2077 39.8703 13.0568 40.0212 12.8682C40.1721 12.604 40.2476 12.2644 40.2476 11.8494C40.2098 11.4344 40.0966 10.9061 39.8703 10.3401C39.5684 9.62325 39.3043 9.13274 39.0402 8.83089C38.776 8.52903 38.5119 8.34038 38.2478 8.30265C37.9082 8.22718 37.6441 8.26492 37.38 8.34038Z" fill="white"/>
<path d="M43.9822 9.20873L44.3972 10.7557C44.4727 11.0576 44.5482 11.2462 44.5859 11.3217C44.6614 11.3972 44.7368 11.4349 44.8123 11.4726C44.9255 11.5103 45.1141 11.4726 45.3405 11.3972L45.3783 11.5481L42.5107 12.265L42.4729 12.1141C42.7371 12.0386 42.888 11.9631 42.9635 11.9254C43.0389 11.8499 43.0766 11.7745 43.1144 11.699C43.1144 11.6235 43.1144 11.4349 43.0389 11.133L42.1334 7.51081C42.0579 7.20896 41.9824 7.02031 41.9447 6.94484C41.8692 6.86938 41.7938 6.83165 41.7183 6.79392C41.6051 6.75619 41.4165 6.79392 41.1901 6.86938L41.1523 6.71845L43.7558 6.03929C44.435 5.85063 44.9255 5.77517 45.2651 5.8129C45.6047 5.8129 45.9065 5.92609 46.1706 6.11475C46.4347 6.30341 46.6234 6.56753 46.6989 6.90711C46.8121 7.32216 46.7366 7.69947 46.5102 8.03906C46.3593 8.26544 46.1329 8.4541 45.831 8.60503L47.6421 10.152C47.8685 10.3407 48.0572 10.4539 48.1327 10.5293C48.2836 10.5671 48.3968 10.6048 48.5477 10.5671L48.5854 10.718L46.8498 11.1708L44.3972 9.09554L43.9822 9.20873ZM43.2653 6.49207L43.9067 8.94461L44.1331 8.86915C44.5104 8.75595 44.7746 8.68049 44.9632 8.52956C45.1519 8.41637 45.2651 8.26544 45.3028 8.03906C45.3783 7.81267 45.3405 7.58628 45.2651 7.28443C45.1519 6.86938 44.9632 6.56753 44.7368 6.4166C44.4727 6.26568 44.1331 6.22795 43.7181 6.34114L43.2653 6.49207Z" fill="white"/>
<path d="M53.943 4.26587L54.1694 6.15244H53.9807C53.8675 5.69966 53.6034 5.32235 53.2638 5.05823C52.9242 4.79411 52.5469 4.68091 52.1696 4.71865C51.8678 4.75638 51.6791 4.83184 51.4904 5.0205C51.3395 5.17142 51.2641 5.36008 51.3018 5.58647C51.3018 5.69966 51.3395 5.81286 51.415 5.92605C51.4904 6.03925 51.6414 6.15244 51.83 6.26564C51.981 6.3411 52.2828 6.49202 52.7733 6.68068C53.4902 6.9448 53.943 7.20892 54.2071 7.51077C54.4712 7.77489 54.6222 8.11448 54.6599 8.49179C54.6976 8.9823 54.5467 9.39735 54.2071 9.77466C53.8675 10.152 53.4147 10.3784 52.8488 10.4161C52.6601 10.4161 52.5092 10.4161 52.3205 10.4161C52.1696 10.3784 51.9432 10.3406 51.7168 10.2652C51.5659 10.2274 51.4527 10.1897 51.3773 10.2274C51.3018 10.2274 51.2263 10.2652 51.1509 10.3406C51.0754 10.4161 50.9999 10.4916 50.9622 10.6048H50.8113L50.6226 8.45406H50.7735C50.9622 9.05776 51.2263 9.51054 51.6036 9.77466C51.981 10.0765 52.396 10.1897 52.7733 10.152C53.0752 10.1142 53.3393 10.001 53.4902 9.81239C53.6789 9.62373 53.7543 9.39735 53.7166 9.17096C53.7166 9.02003 53.6411 8.90684 53.5657 8.79364C53.4902 8.68045 53.377 8.56725 53.1884 8.45406C53.0374 8.34087 52.7733 8.22767 52.3583 8.07675C51.83 7.85036 51.415 7.69943 51.1886 7.51077C50.9622 7.35985 50.7358 7.17119 50.6226 6.9448C50.4717 6.71841 50.3962 6.49202 50.3585 6.2279C50.3208 5.77513 50.434 5.36008 50.7735 5.0205C51.0754 4.68092 51.4904 4.45453 51.981 4.4168C52.1696 4.4168 52.3583 4.41679 52.5092 4.45453C52.6601 4.49226 52.811 4.52999 52.9997 4.60545C53.1884 4.68092 53.3393 4.71865 53.4147 4.71865C53.4902 4.71865 53.5279 4.68092 53.5657 4.64318C53.6034 4.60545 53.6411 4.49226 53.6411 4.3036L53.943 4.26587Z" fill="white"/>
<path d="M61.0002 4.30373L60.9625 6.3035H60.8116C60.6984 5.77526 60.472 5.36021 60.1324 5.09609C59.7928 4.83197 59.4155 4.68105 59.0005 4.64332C58.6232 4.64332 58.3213 4.71878 58.0195 4.94517C57.7176 5.13383 57.4912 5.39795 57.3403 5.73753C57.1516 6.15258 57.0384 6.64308 57.0384 7.17132C57.0384 7.69956 57.0762 8.15234 57.1894 8.56739C57.3026 8.98243 57.4912 9.32202 57.7931 9.54841C58.0572 9.77479 58.4345 9.88799 58.8495 9.88799C59.2269 9.88799 59.5287 9.81253 59.8306 9.6616C60.1324 9.51067 60.472 9.24655 60.8116 8.86924V9.35975C60.472 9.69933 60.1324 9.92572 59.7928 10.0766C59.4533 10.2276 59.0382 10.303 58.5477 10.2653C57.944 10.2653 57.378 10.1144 56.9252 9.85026C56.4725 9.58614 56.0952 9.24655 55.831 8.75605C55.5669 8.30327 55.4537 7.81276 55.4914 7.28452C55.4914 6.71855 55.6801 6.22804 55.9442 5.73753C56.2461 5.24702 56.6234 4.86971 57.1516 4.60559C57.6421 4.34147 58.1704 4.22827 58.6986 4.22827C59.1137 4.22827 59.5287 4.34147 59.9815 4.53012C60.2456 4.64332 60.3965 4.68105 60.472 4.68105C60.5475 4.68105 60.6229 4.64332 60.6984 4.60559C60.7739 4.53012 60.8116 4.45466 60.8493 4.30373H61.0002Z" fill="white"/>
<path d="M64.3584 10.492L64.3206 10.6429L61.3398 10.2656L61.3776 10.1146L61.5662 10.1524C61.7172 10.1901 61.8681 10.1524 61.9813 10.1146C62.0567 10.0769 62.1322 10.0392 62.1699 9.92598C62.2077 9.85052 62.2454 9.69959 62.2831 9.39774L62.7359 5.66233C62.7736 5.36048 62.7736 5.17182 62.7736 5.09636C62.7359 5.02089 62.6982 4.94543 62.6227 4.86997C62.5472 4.7945 62.3963 4.75677 62.2454 4.75677L62.0567 4.71904L62.0945 4.56812L65.0753 4.94543L65.0375 5.09636L64.8489 5.05862C64.6979 5.02089 64.547 5.05862 64.4338 5.09636C64.3584 5.13409 64.2829 5.17182 64.2452 5.28501C64.2074 5.36048 64.1697 5.5114 64.132 5.81325L63.6792 9.54867C63.6415 9.85052 63.6415 10.0392 63.6415 10.1146C63.6415 10.1901 63.7169 10.2656 63.7924 10.341C63.8679 10.4165 64.0188 10.4542 64.1697 10.4542L64.3584 10.492Z" fill="white"/>
<path d="M67.9043 5.81289L67.3761 8.07678L67.4893 8.11451C67.8289 8.18997 68.1307 8.15224 68.3194 7.96358C68.5458 7.77493 68.6967 7.47308 68.8476 7.05803L68.9986 7.09576L68.3571 10.0388L68.2062 10.0011C68.2439 9.6615 68.2439 9.39738 68.1685 9.17099C68.093 8.9446 68.0175 8.79368 67.9043 8.68048C67.7912 8.56729 67.5648 8.49182 67.3006 8.45409L66.9611 10.0388C66.8856 10.3407 66.8479 10.5293 66.8856 10.6048C66.8856 10.6802 66.9233 10.7557 66.9988 10.7934C67.0743 10.8689 67.1874 10.9066 67.3384 10.9444L67.678 11.0198C68.2062 11.133 68.659 11.0953 69.0363 10.9444C69.4136 10.7557 69.7155 10.4539 69.9796 10.0011L70.1305 10.0388L69.4891 11.7745L64.584 10.6048L64.6217 10.4539L64.8104 10.4916C64.9613 10.5293 65.1122 10.5293 65.2254 10.4916C65.3009 10.4539 65.3763 10.4161 65.4518 10.3407C65.4895 10.2652 65.565 10.1143 65.6027 9.81243L66.4328 6.11474C66.4706 5.85062 66.5083 5.6997 66.5083 5.62423C66.5083 5.51104 66.4706 5.43558 66.3951 5.36011C66.3196 5.24692 66.1687 5.17146 65.98 5.13373L65.7914 5.09599L65.8291 4.94507L70.5078 6.00155L70.1305 7.66173L69.9796 7.624C69.9796 7.20896 69.9418 6.86937 69.8287 6.68072C69.7155 6.45433 69.5645 6.3034 69.3004 6.15247C69.1495 6.07701 68.8854 5.96382 68.4326 5.88835L67.9043 5.81289Z" fill="white"/>
<path d="M73.9039 7.13351L75.3754 11.4349L76.2055 9.09555C76.3187 8.75596 76.3565 8.52958 76.3187 8.37865C76.2433 8.18999 76.0546 8.03907 75.7528 7.92587L75.7905 7.77495L77.5639 8.41638L77.5261 8.56731C77.2997 8.52958 77.1111 8.49184 77.0356 8.52958C76.9224 8.52958 76.847 8.60504 76.7715 8.6805C76.696 8.75596 76.6206 8.94462 76.5074 9.20874L74.8849 13.6988L74.734 13.6611L72.6965 7.85041L71.4514 11.284C71.3382 11.5858 71.3382 11.8122 71.4514 12.0009C71.5646 12.1518 71.7155 12.265 71.8664 12.3405L71.9796 12.3782L71.9419 12.5291L70.0176 11.8499L70.0553 11.699C70.3572 11.8122 70.5835 11.8122 70.7345 11.7367C70.8854 11.6613 71.0363 11.4726 71.1118 11.2085L72.5079 7.39763L72.4324 7.20897C72.3569 7.02032 72.3192 6.90712 72.2437 6.83166C72.1683 6.7562 72.0551 6.68073 71.9042 6.60527L71.9419 6.45435L73.9039 7.13351Z" fill="white"/>
<path d="M83.4871 11.2841L82.5815 13.0575L82.4306 12.9821C82.5438 12.4538 82.5438 12.001 82.3551 11.586C82.1665 11.1709 81.9023 10.8691 81.525 10.6804C81.2232 10.5295 80.8836 10.454 80.5063 10.4918C80.129 10.5295 79.8271 10.6804 79.563 10.9068C79.2234 11.2087 78.9216 11.586 78.6574 12.0388C78.431 12.4915 78.2801 12.9443 78.1669 13.3594C78.0915 13.8121 78.1292 14.1895 78.2801 14.4913C78.431 14.7932 78.6952 15.0573 79.0725 15.2837C79.4121 15.4346 79.7139 15.5478 80.0535 15.5478C80.3931 15.5478 80.8081 15.4346 81.2609 15.2459L81.0345 15.6987C80.5817 15.8496 80.1667 15.9251 79.7894 15.8874C79.4121 15.8496 78.997 15.7364 78.582 15.5101C78.0537 15.2459 77.601 14.8686 77.2991 14.4158C76.9973 13.9631 76.8086 13.5103 76.8086 12.9821C76.8086 12.4538 76.8841 11.9633 77.1482 11.5105C77.4123 11.02 77.7519 10.6427 78.2424 10.3409C78.7329 10.039 79.2234 9.88807 79.7894 9.85034C80.3553 9.85034 80.8836 9.96354 81.3741 10.1899C81.7514 10.3786 82.0533 10.6427 82.3928 11.02C82.5815 11.2464 82.6947 11.3596 82.7702 11.3973C82.8456 11.4351 82.9211 11.4351 83.0343 11.4351C83.1097 11.3973 83.2229 11.3219 83.2984 11.2087L83.4871 11.2841Z" fill="white"/>
<path d="M86.0535 13.5476L84.7329 15.4719L84.8084 15.5474C85.1102 15.736 85.3744 15.8115 85.6385 15.6983C85.9026 15.5851 86.1667 15.3964 86.4686 15.0568L86.6195 15.1323L84.9216 17.6226L84.7707 17.5471C84.9216 17.2453 85.0348 16.9812 85.0348 16.7548C85.0725 16.5284 85.0348 16.3397 84.9593 16.1888C84.8839 16.0379 84.7329 15.8869 84.5065 15.736L83.601 17.0566C83.4123 17.3207 83.3369 17.4717 83.2991 17.5471C83.2991 17.6226 83.2991 17.698 83.3369 17.7735C83.3746 17.849 83.4501 17.9244 83.601 18.0376L83.8651 18.2263C84.3179 18.5281 84.7329 18.6791 85.148 18.6413C85.563 18.6036 85.9781 18.4527 86.3554 18.1131L86.4686 18.1886L85.2234 19.5469L81.1484 16.717L81.2239 16.6038L81.3748 16.717C81.5258 16.8302 81.6389 16.868 81.7521 16.868C81.8276 16.868 81.9031 16.868 82.0163 16.7925C82.0917 16.7548 82.2049 16.6038 82.3558 16.3774L84.5065 13.2835C84.6575 13.0571 84.7329 12.9439 84.7707 12.8684C84.8084 12.7552 84.8084 12.6798 84.7707 12.6043C84.7329 12.4911 84.6197 12.3779 84.4688 12.2647L84.3179 12.1515L84.3933 12.0383L88.3551 14.755L87.3741 16.1511L87.2232 16.0756C87.3741 15.6983 87.4496 15.3587 87.4496 15.1323C87.4119 14.9059 87.3364 14.6795 87.1477 14.4531C87.0345 14.3399 86.8082 14.1136 86.4686 13.8872L86.0535 13.5476Z" fill="white"/>
<path d="M93.2604 22.1879L94.5055 23.4331L94.3923 23.5463C94.2414 23.4331 94.0905 23.3576 93.9395 23.3576C93.7886 23.3576 93.5622 23.3953 93.1849 23.4708C92.8453 23.584 92.3926 23.6594 91.8643 23.6972C91.902 24.0745 91.9398 24.3763 91.9775 24.565C92.0152 24.7159 92.0907 24.8291 92.1662 24.9046C92.3171 25.0555 92.5435 25.0932 92.8453 25.0178L92.9208 25.2064C92.4303 25.3574 92.0152 25.4328 91.7134 25.3574C91.487 25.3196 91.2606 25.2064 91.072 25.0178C90.921 24.8669 90.8078 24.6782 90.7324 24.4895C90.6569 24.2632 90.6192 23.999 90.5814 23.584C90.1664 23.5085 89.7891 23.3953 89.525 23.2444C89.2231 23.0935 88.959 22.9048 88.7326 22.6784C88.3553 22.3011 88.1666 21.8861 88.1289 21.471C88.1289 21.056 88.2421 20.6787 88.5062 20.4145C88.8081 20.1127 89.1854 19.9618 89.6004 19.9618C90.0532 19.9618 90.5437 20.075 91.1097 20.3013C91.1851 20.1127 91.2606 19.9618 91.3738 19.8108C91.487 19.6599 91.5625 19.5467 91.6757 19.3958C91.9775 19.0939 92.3548 18.9053 92.8076 18.943C93.2604 18.943 93.6377 19.1317 93.9773 19.4713C94.2414 19.7354 94.4301 20.0372 94.4301 20.3391C94.4678 20.6409 94.3546 20.9051 94.2037 21.0937C93.9773 21.3201 93.7132 21.4333 93.3736 21.4333C93.034 21.4333 92.6189 21.3201 92.1284 21.0937C91.9398 21.7351 91.8643 22.4898 91.8266 23.3576C92.468 23.3199 92.8831 23.1689 93.1095 22.9426C93.1849 22.8671 93.2226 22.7539 93.2226 22.6407C93.2226 22.5275 93.1849 22.4143 93.0717 22.2634L93.2604 22.1879ZM91.0342 20.6032C90.8078 20.5277 90.6192 20.4523 90.4683 20.49C90.2796 20.49 90.0909 20.6032 89.94 20.7164C89.7514 20.9051 89.6382 21.1314 89.5627 21.4333C89.4872 21.7351 89.4872 21.9993 89.525 22.2634C89.5627 22.5275 89.6759 22.7162 89.8268 22.8671C89.9023 22.9426 90.0155 23.018 90.1287 23.0557C90.2419 23.0935 90.3928 23.1689 90.5814 23.2067C90.6192 22.2634 90.7324 21.3956 91.0342 20.6032ZM92.2416 20.8296C92.5435 20.9428 92.7699 21.0182 92.9208 21.0182C93.0717 21.0182 93.2227 20.9428 93.3358 20.7919C93.5622 20.5655 93.6754 20.3013 93.7132 20.0372C93.7509 19.8486 93.6754 19.6976 93.5622 19.5845C93.4868 19.509 93.3358 19.4335 93.2226 19.4713C93.0717 19.4713 92.9585 19.5467 92.8076 19.6599C92.6944 19.7731 92.6189 19.8863 92.5435 20.0372C92.5058 20.1504 92.3926 20.4523 92.2416 20.8296Z" fill="white"/>
<path d="M101.372 28.8292L100.089 29.7347L100.014 29.6216C100.24 29.3574 100.391 29.0933 100.467 28.9424C100.542 28.7537 100.542 28.5651 100.504 28.3387C100.467 28.2255 100.391 28.0368 100.24 27.8482L99.9761 27.5086L96.3539 30.0366C96.1275 30.1875 95.9766 30.3385 95.9389 30.3762C95.9011 30.4516 95.8634 30.5271 95.9011 30.6403C95.9011 30.7535 95.9766 30.8667 96.0521 31.0176L96.1653 31.1685L96.0521 31.244L94.3164 28.7915L94.4296 28.716L94.5428 28.8669C94.656 29.0179 94.7315 29.0933 94.8446 29.131C94.9201 29.1688 94.9956 29.1688 95.1088 29.1688C95.1842 29.1688 95.3352 29.0556 95.5615 28.9047L99.1838 26.3767L98.9574 26.0371C98.731 25.7352 98.5046 25.5466 98.2782 25.4711C97.9386 25.3956 97.599 25.4711 97.2217 25.6598L97.1463 25.5088L98.4291 24.6033L101.372 28.8292Z" fill="white"/>
<path d="M102.654 31.7724L100.579 32.8666L100.617 32.9798C100.806 33.3194 101.032 33.4703 101.296 33.508C101.56 33.5458 101.938 33.4703 102.353 33.3194L102.428 33.4703L99.7868 34.8664L99.7113 34.7154C99.9755 34.5268 100.202 34.3381 100.315 34.1495C100.466 33.9608 100.504 33.7722 100.504 33.6212C100.504 33.4703 100.428 33.2439 100.315 33.0175L98.8812 33.7722C98.6171 33.9231 98.4285 34.0363 98.3907 34.074C98.353 34.1495 98.3153 34.1872 98.3153 34.3004C98.3153 34.3759 98.353 34.489 98.4285 34.64L98.5794 34.9418C98.8435 35.4323 99.1454 35.7342 99.5227 35.9228C99.9 36.0738 100.353 36.1115 100.843 35.9983L100.919 36.1492L99.1831 36.7907L96.8438 32.4138L96.9947 32.3384L97.0701 32.4893C97.1456 32.6402 97.2211 32.7534 97.3343 32.7911C97.4097 32.8289 97.4852 32.8666 97.5984 32.8289C97.6738 32.8289 97.8248 32.7534 98.0889 32.6025L101.409 30.8291C101.636 30.7159 101.787 30.6404 101.824 30.6027C101.9 30.5272 101.937 30.4518 101.937 30.3386C101.975 30.2254 101.937 30.0745 101.824 29.8858L101.749 29.7349L101.9 29.6594L104.164 33.9231L102.654 34.7154L102.579 34.5645C102.919 34.3004 103.107 34.074 103.22 33.8476C103.296 33.6212 103.334 33.3948 103.258 33.093C103.22 32.9421 103.107 32.6402 102.919 32.2629L102.654 31.7724Z" fill="white"/>
<path d="M106.994 40.5257L105.146 41.2426L105.07 41.0917C105.523 40.7899 105.787 40.4503 105.938 40.0352C106.089 39.6202 106.051 39.2051 105.9 38.8278C105.787 38.4882 105.561 38.2241 105.259 37.9977C104.957 37.8091 104.617 37.6959 104.278 37.6582C103.825 37.6582 103.335 37.7336 102.844 37.9223C102.354 38.1109 101.938 38.3373 101.599 38.6014C101.259 38.8656 101.033 39.1674 100.92 39.507C100.807 39.8466 100.844 40.2239 100.995 40.6389C101.108 40.9785 101.297 41.2426 101.561 41.469C101.825 41.6954 102.165 41.8841 102.655 42.0727L102.203 42.2614C101.788 42.0727 101.41 41.8463 101.146 41.5822C100.882 41.3181 100.656 40.9408 100.505 40.5257C100.278 39.9598 100.203 39.3938 100.278 38.8656C100.354 38.3373 100.542 37.8468 100.882 37.4695C101.222 37.0544 101.637 36.7526 102.127 36.6017C102.655 36.413 103.184 36.3753 103.75 36.4507C104.316 36.5262 104.806 36.7526 105.221 37.1299C105.636 37.5072 105.976 37.9223 106.164 38.4505C106.315 38.8278 106.391 39.2429 106.391 39.7334C106.391 39.9975 106.391 40.1862 106.429 40.2616C106.466 40.3371 106.504 40.4125 106.617 40.4503C106.73 40.488 106.806 40.488 106.957 40.4503L106.994 40.5257Z" fill="white"/>
<path d="M104.844 44.5632L103.108 44.9783C102.806 45.0537 102.655 45.0915 102.58 45.1669C102.505 45.2047 102.467 45.2801 102.429 45.3933C102.391 45.5065 102.391 45.6197 102.429 45.7706L102.467 45.9593L102.316 45.997L101.637 43.054L101.788 43.0162L101.825 43.2049C101.863 43.3558 101.939 43.5068 102.014 43.5822C102.052 43.6577 102.165 43.6954 102.24 43.6954C102.316 43.6954 102.505 43.6954 102.769 43.6199L106.466 42.7899C106.768 42.7144 106.919 42.6767 106.995 42.6389C107.07 42.6012 107.108 42.5257 107.146 42.4125C107.183 42.2993 107.183 42.1862 107.146 42.0352L107.108 41.8466L107.259 41.8088L107.938 44.7519L107.787 44.7896L107.749 44.601C107.711 44.45 107.636 44.2991 107.561 44.2237C107.523 44.1482 107.41 44.1105 107.334 44.1105C107.259 44.1105 107.07 44.1105 106.806 44.1859L105.221 44.5632L105.674 46.5253L107.259 46.148C107.561 46.0725 107.711 46.0348 107.787 45.997C107.862 45.9593 107.9 45.8838 107.938 45.7706C107.976 45.6574 107.976 45.5443 107.938 45.3933L107.9 45.2047L108.051 45.1669L108.73 48.11L108.579 48.1477L108.542 47.9591C108.504 47.8081 108.428 47.6572 108.353 47.5817C108.315 47.5063 108.202 47.4686 108.127 47.4686C108.051 47.4686 107.862 47.4686 107.598 47.544L103.901 48.3741C103.599 48.4496 103.448 48.4873 103.372 48.525C103.297 48.5628 103.259 48.6382 103.221 48.7514C103.184 48.8646 103.184 48.9778 103.221 49.1287L103.259 49.3174L103.108 49.3551L102.429 46.4121L102.58 46.3743L102.618 46.563C102.655 46.7139 102.731 46.8649 102.806 46.9403C102.844 47.0158 102.957 47.0535 103.033 47.0535C103.108 47.0535 103.297 47.0535 103.561 46.978L105.297 46.563L104.844 44.5632Z" fill="white"/>
<path d="M109.031 50.9018L105.749 54.0335L108.201 53.8071C108.541 53.7694 108.767 53.6939 108.88 53.5807C109.031 53.4298 109.107 53.2034 109.069 52.8638H109.22L109.409 54.7504H109.258C109.22 54.524 109.145 54.3353 109.107 54.2599C109.031 54.1844 108.956 54.109 108.843 54.0712C108.729 54.0335 108.541 54.0335 108.277 54.0712L103.523 54.4863V54.3353L107.937 50.034L104.315 50.3735C103.975 50.4113 103.787 50.4867 103.673 50.6754C103.56 50.8263 103.523 51.015 103.56 51.2036V51.3546H103.409L103.221 49.3171H103.372C103.409 49.6189 103.485 49.8453 103.636 49.9585C103.787 50.0717 104.013 50.1094 104.315 50.0717L108.352 49.6944L108.503 49.5434C108.654 49.3925 108.729 49.2793 108.767 49.2039C108.805 49.0907 108.805 48.9775 108.805 48.7888H108.956L109.031 50.9018Z" fill="white"/>
<path d="M109.335 58.9389C109.335 59.8445 109.033 60.5991 108.429 61.1273C107.825 61.6556 107.108 61.9197 106.278 61.882C105.561 61.8442 104.92 61.6178 104.392 61.1651C103.675 60.5614 103.335 59.769 103.411 58.7125C103.448 57.6938 103.826 56.9014 104.58 56.3732C105.146 55.9581 105.826 55.7695 106.58 55.8072C107.448 55.8449 108.127 56.1468 108.655 56.7882C109.184 57.3542 109.41 58.1088 109.335 58.9389ZM109.07 58.9766C109.108 58.4484 108.844 58.0334 108.316 57.7315C107.901 57.5051 107.259 57.3542 106.429 57.3165C105.448 57.2787 104.731 57.4297 104.241 57.7315C103.901 57.9579 103.713 58.2975 103.713 58.7125C103.713 59.0144 103.75 59.2408 103.901 59.4672C104.052 59.7313 104.354 59.9199 104.731 60.0709C105.109 60.2218 105.637 60.335 106.278 60.335C107.033 60.3727 107.599 60.335 107.976 60.184C108.354 60.0709 108.618 59.8822 108.806 59.6935C108.957 59.5049 109.07 59.2785 109.07 58.9766Z" fill="white"/>
<path d="M104.392 67.6548L102.43 67.0888L103.298 62.0706L103.448 62.1083L103.411 62.2969C103.373 62.4479 103.373 62.5988 103.411 62.712C103.448 62.7875 103.486 62.8629 103.599 62.9007C103.675 62.9384 103.826 62.9761 104.128 63.0516L107.863 63.693C108.165 63.7307 108.354 63.7685 108.429 63.7307C108.504 63.7307 108.58 63.6553 108.655 63.5798C108.731 63.5044 108.769 63.3912 108.806 63.2025L108.844 63.0138L108.995 63.0516L108.467 66.0701L108.316 66.0324L108.354 65.7682C108.391 65.6173 108.391 65.4664 108.354 65.3532C108.316 65.2777 108.278 65.2023 108.165 65.1645C108.089 65.1268 107.938 65.0891 107.637 65.0136L104.014 64.3722C103.713 64.3344 103.524 64.2967 103.448 64.3344C103.373 64.3722 103.298 64.4099 103.222 64.4854C103.184 64.5608 103.147 64.7118 103.109 64.9759L103.033 65.4664C102.996 65.7682 102.996 66.0324 103.071 66.2587C103.147 66.4851 103.26 66.6738 103.486 66.8625C103.675 67.0511 104.014 67.2398 104.429 67.4662L104.392 67.6548Z" fill="white"/>
<path d="M106.995 72.3712C106.769 73.239 106.278 73.8805 105.561 74.2578C104.844 74.6351 104.09 74.6728 103.259 74.4465C102.58 74.2201 102.014 73.8427 101.637 73.239C101.109 72.4844 100.996 71.6166 101.297 70.6356C101.599 69.6546 102.165 68.9754 103.033 68.6735C103.712 68.4094 104.391 68.4094 105.108 68.6358C105.938 68.8999 106.504 69.3904 106.882 70.1073C107.221 70.8242 107.259 71.5789 106.995 72.3712ZM106.731 72.3712C106.882 71.8807 106.769 71.3902 106.316 70.9752C105.976 70.6356 105.41 70.3337 104.618 70.0696C103.675 69.7678 102.958 69.73 102.392 69.9187C102.014 70.0319 101.75 70.3337 101.637 70.7488C101.562 71.0129 101.562 71.277 101.637 71.5034C101.75 71.8052 101.939 72.0694 102.278 72.3335C102.618 72.5976 103.071 72.824 103.712 73.0127C104.429 73.239 104.995 73.3522 105.41 73.3145C105.825 73.2768 106.127 73.2013 106.316 73.0504C106.467 72.8617 106.618 72.6353 106.731 72.3712Z" fill="white"/>
<path d="M103.184 81.6527L101.373 80.7849L101.449 80.634C102.015 80.7095 102.543 80.634 102.958 80.4076C103.373 80.1812 103.675 79.8794 103.901 79.4643C104.09 79.087 104.128 78.7097 104.052 78.3324C103.977 77.9551 103.75 77.6532 103.411 77.3514C103.071 77.0495 102.694 76.8231 102.279 76.5967C101.788 76.3703 101.336 76.2194 100.883 76.144C100.468 76.0685 100.09 76.144 99.7886 76.3326C99.4867 76.5213 99.2603 76.7854 99.0717 77.125C98.9962 77.2382 98.9585 77.3891 98.9207 77.54C98.883 77.6909 98.8453 77.8419 98.8453 77.9928L99.9395 78.521C100.128 78.6342 100.279 78.672 100.355 78.672C100.43 78.672 100.505 78.6342 100.619 78.5588C100.694 78.4833 100.77 78.4078 100.845 78.2569L100.92 78.106L101.071 78.1815L99.864 80.7095L99.7131 80.634C99.7886 80.4453 99.8263 80.2944 99.8263 80.1812C99.8263 80.1057 99.7886 79.9926 99.7131 79.9171C99.6754 79.8794 99.5622 79.8039 99.3735 79.7284L98.2793 79.2002C98.2793 78.7852 98.3548 78.4078 98.4302 77.9928C98.5434 77.6155 98.6566 77.2004 98.8453 76.8231C99.0717 76.3326 99.3358 75.9553 99.6376 75.6912C99.9395 75.4271 100.241 75.2384 100.581 75.0875C100.921 74.9365 101.26 74.8611 101.6 74.8611C102.052 74.8611 102.467 74.9365 102.92 75.1629C103.713 75.5403 104.241 76.144 104.505 76.9363C104.769 77.7287 104.731 78.5588 104.316 79.3889C104.203 79.653 104.052 79.8794 103.939 80.068C103.864 80.1812 103.713 80.3321 103.486 80.5208C103.26 80.7095 103.147 80.8604 103.147 80.8981C103.109 80.9736 103.109 81.049 103.147 81.1245C103.184 81.2 103.26 81.3132 103.373 81.4264L103.184 81.6527Z" fill="white"/>
<path d="M99.0327 87.9167L98.9195 87.8413C98.995 87.6526 99.0327 87.5017 99.0327 87.3885C98.995 87.1998 98.8818 86.8225 98.58 86.2943L97.5235 84.1059L96.3538 83.3512C96.0897 83.2003 95.9388 83.0871 95.8633 83.0871C95.7878 83.0871 95.7124 83.0871 95.5992 83.1248C95.486 83.1626 95.4105 83.2758 95.3351 83.389L95.1464 83.6531L95.0332 83.5776L96.8066 80.8987L96.9198 80.9741L96.7688 81.2383C96.6934 81.3892 96.6179 81.5024 96.6179 81.6156C96.6179 81.691 96.6179 81.7665 96.6934 81.8797C96.7311 81.9552 96.882 82.0684 97.1084 82.2193L98.0517 82.8607L100.844 83.0871C101.41 83.1248 101.749 83.1248 101.863 83.0871C102.014 83.0494 102.127 82.9362 102.202 82.7853L102.315 82.8607L100.806 85.1623L100.693 85.0869L100.768 84.9737C100.844 84.8228 100.919 84.7096 100.919 84.6341C100.919 84.5586 100.882 84.4832 100.844 84.4832C100.768 84.4454 100.467 84.37 100.014 84.3322L97.8631 84.1436L98.7309 85.9547C98.9573 86.4075 99.1082 86.6716 99.2214 86.7471C99.2969 86.7848 99.3723 86.7848 99.4478 86.7471C99.561 86.7093 99.6742 86.5961 99.8628 86.3697L99.976 86.4452L99.0327 87.9167Z" fill="white"/>
<path d="M35.5305 94.3691L40.1715 96.1048L39.3414 103.764L43.756 97.4631L48.3969 99.1988L44.0956 110.669L41.1902 109.575L44.4729 100.821L38.9641 108.707L36.3229 107.726L37.3794 98.1423L34.0967 106.858L31.1914 105.764L35.5305 94.3691Z" fill="white"/>
<path d="M57.3766 99.5378L61.1497 99.6887L60.8479 106.971C60.8102 107.688 60.697 108.367 60.4328 109.008C60.1687 109.65 59.7914 110.178 59.3009 110.669C58.8104 111.121 58.2821 111.461 57.7539 111.612C56.9993 111.838 56.1315 111.951 55.1127 111.914C54.509 111.876 53.8676 111.838 53.1884 111.725C52.4715 111.612 51.9055 111.423 51.4528 111.159C51 110.895 50.5849 110.518 50.2076 110.065C49.8303 109.612 49.5662 109.122 49.453 108.631C49.2643 107.839 49.1511 107.16 49.1889 106.556L49.4907 99.2737L53.2639 99.4246L52.962 106.895C52.9243 107.575 53.1129 108.103 53.4525 108.48C53.7921 108.857 54.3203 109.084 54.9618 109.122C55.6032 109.159 56.1315 108.971 56.5088 108.631C56.8861 108.291 57.1125 107.763 57.1125 107.084L57.3766 99.5378Z" fill="white"/>
<path d="M63.6402 107.575L67.0738 106.518C67.3001 107.084 67.5643 107.462 67.8661 107.688C68.3566 108.065 68.9603 108.178 69.6772 108.028C70.2055 107.914 70.5828 107.688 70.8092 107.348C71.0356 107.046 71.111 106.707 71.0356 106.405C70.9601 106.103 70.7714 105.839 70.4319 105.688C70.0923 105.5 69.4131 105.424 68.3944 105.462C66.6964 105.5 65.4136 105.273 64.5835 104.858C63.7534 104.443 63.2251 103.726 62.9988 102.821C62.8478 102.217 62.8856 101.575 63.112 100.972C63.3383 100.33 63.7534 99.8021 64.3948 99.3115C65.0363 98.821 65.9795 98.4437 67.187 98.1419C68.6962 97.7646 69.9413 97.7646 70.8846 98.1419C71.8279 98.5192 72.5071 99.3116 72.9599 100.481L69.564 101.538C69.3376 101.009 69.0735 100.67 68.6962 100.519C68.3189 100.368 67.9038 100.33 67.3756 100.443C66.9606 100.557 66.6587 100.708 66.4701 100.934C66.2814 101.16 66.2437 101.425 66.3191 101.689C66.3569 101.877 66.5078 102.028 66.6964 102.141C66.9228 102.255 67.3379 102.292 68.017 102.292C69.715 102.255 70.9601 102.33 71.7147 102.519C72.5071 102.707 73.1108 103.009 73.5636 103.462C74.0163 103.915 74.3182 104.443 74.4691 105.122C74.6578 105.877 74.62 106.631 74.3559 107.386C74.0918 108.141 73.6013 108.744 72.9599 109.273C72.2807 109.801 71.3751 110.178 70.2055 110.48C68.168 110.971 66.6964 110.933 65.7154 110.329C64.6967 109.612 64.0175 108.744 63.6402 107.575Z" fill="white"/>
<path d="M72.3945 97.0857L82.4688 91.5769L83.9026 94.2181L80.5068 96.0669L84.9214 104.179L81.601 105.99L77.1864 97.9158L73.7906 99.7646L72.3945 97.0857Z" fill="white"/>
<path d="M57.0004 112.104C87.633 112.104 112.466 87.2709 112.466 56.6383C112.466 26.0057 87.633 1.1731 57.0004 1.1731C26.3678 1.1731 1.53516 26.0057 1.53516 56.6383C1.53516 87.2709 26.3678 112.104 57.0004 112.104Z" stroke="white" stroke-width="1.13194" stroke-miterlimit="10"/>
<path d="M27.4941 81.2017L30.3995 78.5605L30.9277 79.1642L29.6448 80.3339H31.9842L32.7011 81.1263L30.5881 81.0508L29.8335 83.8052L29.1543 83.0506L29.7958 81.0131L28.8902 80.9754L28.0224 81.7677L27.4941 81.2017Z" fill="white"/>
<path d="M30.3613 84.2581L32.9648 81.3528L33.5308 81.881L33.0025 84.8995L34.7382 82.9375L35.3041 83.428L32.7007 86.3333L32.097 85.8051L32.6252 82.862L30.9273 84.7486L30.3613 84.2581Z" fill="white"/>
<path d="M34.5127 85.352C34.739 85.0124 34.9654 84.786 35.2296 84.6351C35.4182 84.5219 35.6069 84.4464 35.8333 84.4087C36.0596 84.3709 36.2483 84.3709 36.437 84.4087C36.7011 84.4464 36.9652 84.5973 37.2293 84.786C37.6821 85.1256 37.984 85.5406 38.0594 86.0311C38.1349 86.5216 37.984 87.0121 37.6066 87.5404C37.2293 88.0686 36.8143 88.3705 36.3238 88.4459C35.8333 88.5214 35.3428 88.4082 34.89 88.1063C34.3995 87.7668 34.1353 87.3517 34.0599 86.8612C33.9844 86.3707 34.1353 85.8802 34.5127 85.352ZM35.1918 85.8047C34.9277 86.182 34.8145 86.4839 34.8522 86.7857C34.89 87.0876 35.0409 87.3517 35.305 87.5026C35.5691 87.6913 35.8333 87.729 36.1351 87.6536C36.437 87.5781 36.7011 87.3517 36.9652 87.0121C37.2293 86.6348 37.3425 86.333 37.3048 86.0311C37.2671 85.7293 37.1161 85.5029 36.852 85.3142C36.5879 85.1256 36.3238 85.0501 36.0219 85.1256C35.7201 85.201 35.4182 85.4274 35.1918 85.8047Z" fill="white"/>
<path d="M37.7578 89.8795L38.7388 85.9932L39.4557 86.3705L38.7388 89.0117L40.6254 86.9742L41.4555 87.427L40.7763 90.1814L42.5874 88.0307L43.3043 88.408L40.6631 91.4265L39.9085 91.0492L40.5877 88.1061L38.5502 90.3323L37.7578 89.8795Z" fill="white"/>
<path d="M42.1348 92.0302L43.5308 88.408L44.2855 88.6721L43.1535 91.6906L45.0024 92.4075L44.776 93.0112L42.1348 92.0302Z" fill="white"/>
<path d="M45.4551 93.2756L46.4738 89.5024L49.266 90.2571L49.0773 90.8985L47.0398 90.3325L46.8134 91.1626L48.7 91.6909L48.5113 92.3323L46.6248 91.8041L46.3606 92.8228L48.4736 93.3888L48.2849 94.0302L45.4551 93.2756Z" fill="white"/>
<path d="M49.8686 90.3701L51.3024 90.5965C51.642 90.6342 51.8684 90.7097 52.0193 90.7852C52.2457 90.8984 52.3966 91.0493 52.5475 91.2379C52.6985 91.4266 52.7739 91.653 52.8117 91.9171C52.8494 92.1812 52.8494 92.4831 52.7739 92.8604C52.7362 93.1622 52.623 93.4641 52.5098 93.6528C52.3589 93.9169 52.208 94.1055 51.9816 94.2565C51.8307 94.3697 51.642 94.4451 51.3779 94.4828C51.1892 94.5206 50.9628 94.4828 50.661 94.4451L49.1895 94.2187L49.8686 90.3701ZM50.5101 91.1625L50.095 93.7282L50.661 93.8414C50.8874 93.8791 51.0383 93.8791 51.1515 93.8791C51.2647 93.8791 51.3779 93.8414 51.4911 93.7659C51.6043 93.6905 51.6797 93.5773 51.7552 93.4264C51.8307 93.2754 51.9061 93.0491 51.9438 92.7472C51.9816 92.4453 52.0193 92.219 51.9816 92.0303C51.9438 91.8794 51.9061 91.7285 51.8307 91.6153C51.7552 91.5021 51.642 91.4266 51.4911 91.3889C51.3779 91.3511 51.1892 91.3134 50.8496 91.2379L50.5101 91.1625Z" fill="white"/>
<path d="M55.2641 93.5396L55.3019 92.8982L56.9998 92.9736L56.9243 94.5206C56.7357 94.6715 56.5093 94.7847 56.1697 94.8979C55.8679 95.0111 55.5283 95.0489 55.2264 95.0489C54.8114 95.0111 54.4718 94.9357 54.1699 94.747C53.8681 94.5583 53.6417 94.2942 53.5285 93.9924C53.3776 93.6528 53.3398 93.3132 53.3398 92.9359C53.3776 92.5208 53.453 92.1813 53.6417 91.8794C53.8304 91.5776 54.0945 91.3512 54.4341 91.2002C54.6982 91.0871 55 91.0493 55.3773 91.0493C55.8678 91.087 56.2452 91.2002 56.5093 91.4266C56.7734 91.653 56.9243 91.9171 56.9998 92.2945L56.2074 92.4077C56.1697 92.219 56.0565 92.0681 55.9056 91.9549C55.7547 91.8417 55.566 91.7662 55.3396 91.7662C55 91.7662 54.6982 91.8417 54.5095 92.0681C54.2831 92.2945 54.1699 92.5963 54.1699 93.0114C54.1322 93.4641 54.2454 93.8414 54.4341 94.0678C54.6227 94.2942 54.8868 94.4451 55.2264 94.4451C55.3773 94.4451 55.566 94.4451 55.7169 94.3697C55.8679 94.332 56.0188 94.2565 56.1697 94.1433L56.2074 93.6528L55.2641 93.5396Z" fill="white"/>
<path d="M57.869 95.011L57.6426 91.1247L60.5479 90.936L60.5856 91.5775L58.4727 91.6907L58.5104 92.5585L60.4724 92.4453L60.5102 93.0867L58.5481 93.1999L58.6236 94.2564L60.812 94.1432L60.8498 94.7846L57.869 95.011Z" fill="white"/>
<path d="M63.2632 94.4829L62.584 90.6343L63.3763 90.4834L64.0555 94.332L63.2632 94.4829Z" fill="white"/>
<path d="M64.4341 93.0114L65.151 92.7473C65.2642 92.9737 65.3774 93.1623 65.5661 93.2378C65.717 93.3133 65.9434 93.351 66.1698 93.2755C66.4339 93.2001 66.5848 93.1246 66.698 92.9737C66.8112 92.8228 66.8112 92.7096 66.8112 92.5586C66.7735 92.4832 66.7358 92.4077 66.6603 92.3323C66.5848 92.2945 66.4716 92.2568 66.3585 92.2191C66.2453 92.2191 66.0566 92.2191 65.717 92.2191C65.2642 92.2191 64.9624 92.1813 64.7737 92.0681C64.4719 91.9172 64.3209 91.6908 64.2455 91.389C64.2078 91.2003 64.2078 91.0117 64.2832 90.823C64.3587 90.6343 64.4719 90.4457 64.6605 90.3325C64.8492 90.1816 65.0756 90.0684 65.3774 90.0306C65.8679 89.9174 66.2453 89.9174 66.5471 90.0684C66.849 90.2193 67.0376 90.4834 67.1508 90.823L66.3962 91.0494C66.3207 90.8607 66.2075 90.7475 66.0943 90.6721C65.9811 90.5966 65.7925 90.5966 65.5661 90.6721C65.3397 90.7098 65.1888 90.823 65.0756 90.9362C65.0001 91.0117 65.0001 91.0871 65.0001 91.2003C65.0378 91.2758 65.0756 91.3512 65.1888 91.389C65.302 91.4644 65.5661 91.4644 65.9434 91.4644C66.3207 91.4644 66.6226 91.4644 66.849 91.5399C67.0376 91.5776 67.2263 91.6908 67.3772 91.804C67.5281 91.9549 67.6036 92.1436 67.6791 92.37C67.7168 92.5964 67.7168 92.8228 67.6413 93.0114C67.5659 93.2378 67.4149 93.4265 67.2263 93.5774C67.0376 93.7283 66.7735 93.8415 66.4339 93.917C65.9434 94.0302 65.5661 94.0302 65.2642 93.8415C64.8115 93.7283 64.5851 93.4265 64.4341 93.0114Z" fill="white"/>
<path d="M70.2059 92.7097L68.7344 89.0875L69.904 88.597C70.3568 88.4083 70.6587 88.3328 70.8096 88.2951C71.036 88.2574 71.2624 88.2951 71.4888 88.446C71.7152 88.5592 71.8661 88.7856 71.9793 89.0497C72.0547 89.2761 72.0925 89.4648 72.0925 89.6534C72.0925 89.8421 72.017 89.993 71.9416 90.1439C71.8661 90.2949 71.7529 90.4081 71.6397 90.4835C71.4888 90.5967 71.2247 90.7099 70.8851 90.8608L70.3946 91.0495L70.9605 92.4078L70.2059 92.7097ZM69.7154 89.3893L70.1304 90.4081L70.5455 90.2571C70.8473 90.1439 71.036 90.0308 71.1115 89.9553C71.1869 89.8798 71.2624 89.8044 71.2624 89.6912C71.3001 89.578 71.2624 89.4648 71.2247 89.3893C71.1869 89.2761 71.0737 89.1629 70.9605 89.1252C70.8473 89.0875 70.7341 89.0497 70.5832 89.0875C70.5078 89.1252 70.3191 89.1629 70.055 89.2761L69.7154 89.3893Z" fill="white"/>
<path d="M72.7341 89.5779C72.5455 89.2384 72.4323 88.8988 72.3945 88.5969C72.3945 88.3705 72.3945 88.1819 72.47 87.9555C72.5455 87.7291 72.6209 87.5404 72.7341 87.3895C72.885 87.2009 73.1114 87.0122 73.4133 86.8613C73.9038 86.5972 74.3943 86.5217 74.8848 86.6726C75.3753 86.8236 75.7526 87.1631 76.0545 87.7291C76.3563 88.2951 76.4318 88.7856 76.3186 89.2761C76.2054 89.7666 75.8658 90.1439 75.3753 90.408C74.8471 90.6722 74.3566 90.7476 73.9038 90.5967C73.4133 90.4458 73.036 90.1062 72.7341 89.5779ZM73.451 89.1629C73.6774 89.5402 73.9038 89.8043 74.2056 89.9175C74.5075 90.0307 74.7716 89.993 75.0357 89.8421C75.2998 89.6911 75.4885 89.4647 75.564 89.1629C75.6394 88.861 75.564 88.5215 75.3376 88.1064C75.1112 87.7291 74.8848 87.465 74.583 87.3518C74.3188 87.2386 74.017 87.2763 73.7529 87.4273C73.451 87.5782 73.3001 87.8046 73.2246 88.1064C73.1492 88.4083 73.2246 88.7479 73.451 89.1629Z" fill="white"/>
<path d="M78.2437 88.6346L75.1875 86.0311L75.8289 85.5406L77.9042 87.3517L76.8854 84.7482L77.64 84.1823L79.7907 85.9934L78.6588 83.4276L79.3002 82.9749L80.8472 86.7103L80.168 87.2008L77.8287 85.3142L78.9229 88.1441L78.2437 88.6346Z" fill="white"/>
<path d="M82.1301 85.6914L79.4512 82.8239L81.5641 80.8618L82.0169 81.3523L80.4699 82.7861L81.0736 83.4276L82.5074 82.107L82.9602 82.5975L81.5264 83.9181L82.2433 84.7104L83.828 83.2389L84.2808 83.7294L82.1301 85.6914Z" fill="white"/>
<path d="M84.9216 82.9748L81.9785 80.4091L83.0727 79.1639C83.3369 78.8621 83.5632 78.6357 83.7519 78.5602C83.9405 78.447 84.1292 78.447 84.3179 78.447C84.5443 78.4848 84.7329 78.5602 84.8838 78.7111C85.1102 78.8998 85.2234 79.1262 85.2611 79.3903C85.2989 79.6544 85.2234 79.9185 85.0348 80.2204C85.2234 80.1449 85.4121 80.1072 85.563 80.1072C85.7139 80.1072 85.978 80.1449 86.3554 80.1827L87.2609 80.3336L86.6572 81.0505L85.6385 80.9373C85.2611 80.8996 85.0348 80.8618 84.9216 80.8618C84.8084 80.8618 84.7329 80.8996 84.6574 80.9373C84.582 80.975 84.4688 81.0882 84.3556 81.2014L84.2424 81.3146L85.4875 82.3711L84.9216 82.9748ZM83.7519 80.8996L84.1292 80.4468C84.3933 80.1449 84.5065 79.9563 84.5443 79.8808C84.582 79.8054 84.582 79.6922 84.582 79.6167C84.5443 79.5412 84.5065 79.428 84.4311 79.3526C84.3179 79.2771 84.2424 79.2394 84.1292 79.2394C84.016 79.2394 83.9028 79.2771 83.8274 79.3526C83.7896 79.3903 83.6387 79.5412 83.45 79.7676L83.035 80.2204L83.7519 80.8996Z" fill="white"/>
</svg>
