<svg width="167" height="125" viewBox="0 0 167 125" fill="none" xmlns="http://www.w3.org/2000/svg">
<path d="M114.057 53.9354H111.988V44.6791H114.057V53.9354ZM110.557 53.9354H108.489V44.6791H110.557V53.9354ZM107.056 53.9354H104.988V44.6791H107.056V53.9354ZM103.555 53.9354H101.486V44.6791H103.555V53.9354ZM97.9196 53.9354H95.8499V40.288H97.9196V53.9354ZM92.2815 53.9354H90.213V40.288H92.2815V53.9354ZM87.6581 53.9354H83.3679H79.0778V40.288H83.3679H87.6581V53.9354ZM76.5234 53.9354H74.4549V40.288H76.5234V53.9354ZM70.8859 53.9354H68.8162V40.288H70.8859V53.9354ZM65.2502 53.9354H63.1805V44.6791H65.2502V53.9354ZM61.7482 53.9354H59.6797V44.6791H61.7482V53.9354ZM58.2473 53.9354H56.1788V44.6791H58.2473V53.9354ZM54.7481 53.9354H52.6797V44.6791H54.7481V53.9354ZM115.75 40.1436C115.749 40.1331 115.363 40.1207 115.362 40.1102H101.106V35.7578H93.5126V34.7291C93.5126 34.7291 86.7884 31.0123 86.2333 30.537C86.2333 29.8375 86.3923 27.5055 83.3679 27.4205C80.3435 27.5055 80.5031 29.8375 80.5031 30.537C79.9474 31.0123 73.2232 34.7291 73.2232 34.7291V35.7578H65.6299V40.1102H51.374C51.3728 40.1207 50.9873 40.1331 50.9861 40.1436L50.5977 47.4335C51.009 51.1891 52.0441 54.7581 53.6033 58.0289H83.3679H113.133C114.692 54.7581 115.727 51.1891 116.138 47.4335L115.75 40.1436Z" fill="#00AC5C"/>
<path d="M6.84687 112.402L2.3842 102.733V110.411C2.3842 111.117 2.46166 111.557 2.61423 111.732C2.82489 111.97 3.15644 112.088 3.61121 112.088H4.01963V112.402H0V112.088H0.409005C0.897816 112.088 1.24345 111.941 1.44824 111.647C1.57264 111.467 1.63543 111.054 1.63543 110.411V102.902C1.63543 102.394 1.57851 102.026 1.46526 101.802C1.38545 101.637 1.23992 101.5 1.02574 101.39C0.814489 101.28 0.471793 101.224 0 101.224V100.911H3.26969L7.45891 109.903L11.5812 100.911H14.8498V101.224H14.4495C13.956 101.224 13.6063 101.372 13.4021 101.666C13.2777 101.846 13.2155 102.259 13.2155 102.902V110.411C13.2155 111.117 13.2941 111.557 13.4526 111.732C13.6632 111.97 13.9959 112.088 14.4495 112.088H14.8498V112.402H9.9458V112.088H10.3548C10.8483 112.088 11.1945 111.941 11.3929 111.647C11.5173 111.467 11.5812 111.054 11.5812 110.411V102.733L7.12736 112.402H6.84687Z" fill="white"/>
<path d="M21.8946 112.088V112.402H16.9473V112.088H17.3574C17.8339 112.088 18.1796 111.95 18.3949 111.673C18.5305 111.492 18.5997 111.057 18.5997 110.368V102.945C18.5997 102.363 18.5622 101.979 18.4882 101.793C18.4313 101.651 18.3151 101.529 18.1397 101.428C17.8897 101.293 17.628 101.225 17.3574 101.225H16.9473V100.912H21.8946V101.225H21.4774C21.0068 101.225 20.6618 101.363 20.4464 101.64C20.305 101.821 20.234 102.256 20.234 102.945V110.368C20.234 110.95 20.2715 111.334 20.3449 111.52C20.4018 111.661 20.5203 111.784 20.7017 111.885C20.9464 112.021 21.2051 112.088 21.4774 112.088H21.8946Z" fill="white"/>
<path d="M31.485 100.649V104.623H31.1693C31.0678 103.859 30.8853 103.253 30.6213 102.801C30.3566 102.35 29.9805 101.99 29.4928 101.725C29.004 101.459 28.4994 101.327 27.9771 101.327C27.3868 101.327 26.898 101.505 26.5118 101.865C26.1263 102.224 25.9338 102.632 25.9338 103.089C25.9338 103.44 26.0559 103.759 26.3006 104.047C26.6515 104.47 27.4895 105.035 28.8115 105.742C29.8907 106.318 30.6271 106.76 31.0215 107.067C31.4164 107.376 31.7186 107.739 31.9328 108.156C32.1458 108.575 32.252 109.013 32.252 109.47C32.252 110.339 31.9122 111.089 31.2333 111.72C30.5561 112.349 29.6824 112.664 28.6156 112.664C28.2805 112.664 27.966 112.639 27.6708 112.588C27.4942 112.559 27.1303 112.457 26.5764 112.279C26.0236 112.101 25.6727 112.011 25.5248 112.011C25.3834 112.011 25.2708 112.055 25.1886 112.14C25.1064 112.224 25.0448 112.399 25.0061 112.664H24.6904V108.723H25.0061C25.1522 109.548 25.3523 110.166 25.6011 110.575C25.8517 110.986 26.2325 111.325 26.7466 111.596C27.2594 111.868 27.8245 112.004 28.4366 112.004C29.1466 112.004 29.707 111.816 30.1184 111.444C30.5291 111.071 30.7351 110.63 30.7351 110.122C30.7351 109.84 30.6576 109.554 30.5016 109.267C30.3455 108.979 30.1025 108.71 29.7733 108.461C29.5521 108.292 28.9471 107.932 27.9601 107.381C26.9731 106.83 26.2701 106.391 25.8529 106.063C25.4356 105.735 25.1188 105.374 24.9034 104.978C24.6869 104.583 24.5801 104.149 24.5801 103.673C24.5801 102.849 24.8981 102.138 25.5336 101.543C26.1686 100.946 26.9778 100.649 27.9601 100.649C28.5733 100.649 29.2229 100.799 29.9101 101.098C30.2269 101.239 30.4523 101.31 30.5825 101.31C30.7304 101.31 30.8513 101.266 30.9446 101.178C31.0385 101.09 31.1136 100.914 31.1693 100.649H31.485Z" fill="white"/>
<path d="M37.9449 106.495C38.0523 106.495 38.1468 106.496 38.2254 106.499C38.3052 106.502 38.3709 106.504 38.4214 106.504C39.5234 106.504 40.3532 106.266 40.9124 105.792C41.471 105.318 41.7504 104.714 41.7504 103.978C41.7504 103.262 41.5256 102.679 41.0744 102.229C40.6219 101.78 40.0257 101.556 39.2817 101.556C38.9525 101.556 38.5077 101.61 37.9449 101.716V106.495ZM46.1438 112.402H43.0619L39.1543 107.03C38.8644 107.041 38.6285 107.047 38.4484 107.047C38.3733 107.047 38.2946 107.046 38.2084 107.042C38.1239 107.04 38.0359 107.035 37.9449 107.03V110.368C37.9449 111.091 38.0247 111.541 38.1832 111.715C38.3985 111.964 38.723 112.089 39.1543 112.089H39.6056V112.402H34.6582V112.089H35.0924C35.5813 112.089 35.9298 111.93 36.1399 111.613C36.2584 111.438 36.3177 111.023 36.3177 110.368V102.945C36.3177 102.222 36.2391 101.773 36.0795 101.597C35.8582 101.35 35.529 101.225 35.0924 101.225H34.6582V100.911H38.8644C40.0909 100.911 40.9946 101.001 41.5761 101.178C42.1582 101.355 42.6529 101.685 43.0584 102.161C43.4633 102.639 43.6669 103.207 43.6669 103.869C43.6669 104.576 43.4357 105.188 42.9721 105.708C42.5103 106.227 41.7926 106.594 40.8226 106.809L43.2068 110.105C43.7525 110.862 44.2196 111.365 44.6128 111.613C45.003 111.863 45.5136 112.02 46.1438 112.089V112.402Z" fill="white"/>
<path d="M59.9642 101.225V100.911H64.0507V101.225H63.6176C63.1623 101.225 62.8131 101.415 62.5696 101.792C62.4499 101.968 62.3906 102.374 62.3906 103.013V107.674C62.3906 108.825 62.2756 109.719 62.0461 110.356C61.8161 110.99 61.3649 111.536 60.6924 111.991C60.0187 112.446 59.1039 112.673 57.9467 112.673C56.6862 112.673 55.7292 112.455 55.076 112.02C54.4241 111.585 53.9617 111.002 53.6882 110.267C53.5069 109.764 53.416 108.82 53.416 107.436V102.945C53.416 102.238 53.318 101.775 53.1226 101.555C52.9266 101.335 52.6109 101.225 52.1737 101.225H51.7383V100.911H56.7285V101.225H56.2855C55.809 101.225 55.468 101.375 55.2632 101.674C55.1218 101.878 55.0502 102.302 55.0502 102.945V107.953C55.0502 108.399 55.0919 108.911 55.1752 109.487C55.2562 110.063 55.4064 110.513 55.6212 110.834C55.8365 111.156 56.1476 111.421 56.5542 111.632C56.9591 111.84 57.4579 111.943 58.0482 111.943C58.8029 111.943 59.4789 111.78 60.0745 111.452C60.6707 111.125 61.0773 110.705 61.2962 110.195C61.5151 109.683 61.6248 108.818 61.6248 107.598V102.945C61.6248 102.228 61.545 101.779 61.3854 101.597C61.1642 101.349 60.835 101.225 60.3984 101.225H59.9642Z" fill="white"/>
<path d="M65.1777 100.912H68.3119L75.3706 109.53V102.903C75.3706 102.196 75.2908 101.756 75.1323 101.581C74.9217 101.344 74.5901 101.225 74.1354 101.225H73.7351V100.912H77.7536V101.225H77.3458C76.857 101.225 76.5113 101.371 76.3065 101.665C76.1821 101.847 76.1193 102.259 76.1193 102.903V112.587H75.813L68.2004 103.335V110.411C68.2004 111.116 68.2778 111.557 68.4304 111.732C68.6458 111.969 68.9785 112.088 69.4262 112.088H69.8364V112.403H65.8162V112.088H66.217C66.7116 112.088 67.0602 111.941 67.2644 111.647C67.3888 111.467 67.4516 111.055 67.4516 110.411V102.42C67.1171 102.03 66.863 101.773 66.6899 101.648C66.5157 101.524 66.2616 101.409 65.9277 101.301C65.7622 101.25 65.5128 101.225 65.1777 101.225V100.912Z" fill="white"/>
<path d="M84.5536 112.088V112.402H79.6074V112.088H80.0164C80.4929 112.088 80.8385 111.95 81.0539 111.673C81.1906 111.492 81.2587 111.057 81.2587 110.368V102.945C81.2587 102.363 81.2223 101.979 81.1484 101.793C81.0915 101.651 80.9753 101.529 80.7986 101.428C80.5487 101.293 80.2881 101.225 80.0164 101.225H79.6074V100.912H84.5536V101.225H84.1364C83.6658 101.225 83.3219 101.363 83.1071 101.64C82.964 101.821 82.893 102.256 82.893 102.945V110.368C82.893 110.95 82.9305 111.334 83.0039 111.52C83.0608 111.661 83.1805 111.784 83.3618 111.885C83.6053 112.021 83.8641 112.088 84.1364 112.088H84.5536Z" fill="white"/>
<path d="M98.532 100.912V101.225C98.123 101.299 97.8137 101.428 97.6031 101.615C97.302 101.892 97.0356 102.315 96.8033 102.886L92.7754 112.665H92.4609L88.1349 102.758C87.9137 102.25 87.7576 101.94 87.6667 101.826C87.5252 101.651 87.3498 101.515 87.1432 101.417C86.9361 101.316 86.6568 101.253 86.3047 101.225V100.912H91.0226V101.225C90.4892 101.276 90.1418 101.365 89.9834 101.496C89.8238 101.625 89.7451 101.793 89.7451 101.996C89.7451 102.279 89.8754 102.719 90.136 103.318L93.0741 110.054L95.7981 103.403C96.0645 102.747 96.1983 102.293 96.1983 102.038C96.1983 101.875 96.1161 101.719 95.9518 101.567C95.7875 101.419 95.5088 101.312 95.1174 101.25C95.088 101.245 95.0411 101.238 94.973 101.225V100.912H98.532Z" fill="white"/>
<path d="M103.56 101.539V106.08H106.097C106.756 106.08 107.195 105.982 107.417 105.783C107.712 105.524 107.876 105.067 107.911 104.412H108.226V108.411H107.911C107.832 107.852 107.752 107.492 107.672 107.335C107.57 107.137 107.402 106.982 107.17 106.868C106.937 106.756 106.579 106.699 106.097 106.699H103.56V110.486C103.56 110.994 103.583 111.304 103.628 111.414C103.673 111.524 103.753 111.613 103.866 111.677C103.98 111.743 104.195 111.775 104.513 111.775H106.472C107.124 111.775 107.598 111.73 107.894 111.639C108.188 111.548 108.472 111.37 108.745 111.106C109.097 110.755 109.457 110.227 109.826 109.521H110.168L109.171 112.401H100.273V112.088H100.682C100.955 112.088 101.212 112.022 101.456 111.893C101.638 111.802 101.762 111.667 101.827 111.487C101.892 111.307 101.925 110.936 101.925 110.376V102.912C101.925 102.182 101.851 101.733 101.703 101.564C101.499 101.338 101.159 101.225 100.682 101.225H100.273V100.912H109.171L109.299 103.428H108.966C108.847 102.823 108.716 102.408 108.57 102.182C108.425 101.957 108.211 101.784 107.928 101.665C107.701 101.581 107.3 101.539 106.727 101.539H103.56Z" fill="white"/>
<path d="M115.324 106.495C115.431 106.495 115.526 106.496 115.604 106.499C115.684 106.502 115.75 106.504 115.8 106.504C116.901 106.504 117.732 106.266 118.291 105.792C118.85 105.318 119.129 104.714 119.129 103.978C119.129 103.262 118.903 102.679 118.452 102.229C118.001 101.78 117.405 101.556 116.661 101.556C116.331 101.556 115.885 101.61 115.324 101.716V106.495ZM123.523 112.402H120.441L116.533 107.03C116.243 107.041 116.007 107.047 115.827 107.047C115.752 107.047 115.674 107.046 115.587 107.042C115.503 107.04 115.415 107.035 115.324 107.03V110.368C115.324 111.091 115.402 111.541 115.562 111.715C115.777 111.964 116.102 112.089 116.533 112.089H116.984V112.402H112.037V112.089H112.471C112.959 112.089 113.309 111.93 113.518 111.613C113.637 111.438 113.697 111.023 113.697 110.368V102.945C113.697 102.222 113.618 101.773 113.458 101.597C113.237 101.35 112.908 101.225 112.471 101.225H112.037V100.911H116.243C117.469 100.911 118.373 101.001 118.955 101.178C119.536 101.355 120.031 101.685 120.437 102.161C120.842 102.639 121.046 103.207 121.046 103.869C121.046 104.576 120.815 105.188 120.351 105.708C119.889 106.227 119.172 106.594 118.202 106.809L120.586 110.105C121.13 110.862 121.599 111.365 121.991 111.613C122.382 111.863 122.892 112.02 123.523 112.089V112.402Z" fill="white"/>
<path d="M132.535 100.649V104.623H132.219C132.118 103.859 131.935 103.253 131.67 102.801C131.407 102.35 131.03 101.99 130.543 101.725C130.054 101.459 129.549 101.327 129.027 101.327C128.437 101.327 127.948 101.505 127.562 101.865C127.176 102.224 126.983 102.632 126.983 103.089C126.983 103.44 127.106 103.759 127.349 104.047C127.702 104.47 128.538 105.035 129.862 105.742C130.94 106.318 131.676 106.76 132.07 107.067C132.465 107.376 132.769 107.739 132.983 108.156C133.194 108.575 133.301 109.013 133.301 109.47C133.301 110.339 132.962 111.089 132.283 111.72C131.605 112.349 130.732 112.664 129.666 112.664C129.33 112.664 129.015 112.639 128.72 112.588C128.544 112.559 128.179 112.457 127.626 112.279C127.072 112.101 126.723 112.011 126.575 112.011C126.432 112.011 126.321 112.055 126.237 112.14C126.156 112.224 126.095 112.399 126.055 112.664H125.74V108.723H126.055C126.202 109.548 126.401 110.166 126.651 110.575C126.901 110.986 127.283 111.325 127.797 111.596C128.309 111.868 128.873 112.004 129.487 112.004C130.195 112.004 130.757 111.816 131.168 111.444C131.579 111.071 131.785 110.63 131.785 110.122C131.785 109.84 131.708 109.554 131.552 109.267C131.395 108.979 131.153 108.71 130.823 108.461C130.602 108.292 129.997 107.932 129.009 107.381C128.022 106.83 127.319 106.391 126.903 106.063C126.486 105.735 126.169 105.374 125.953 104.978C125.737 104.583 125.629 104.149 125.629 103.673C125.629 102.849 125.947 102.138 126.584 101.543C127.219 100.946 128.028 100.649 129.009 100.649C129.622 100.649 130.273 100.799 130.96 101.098C131.277 101.239 131.502 101.31 131.633 101.31C131.78 101.31 131.9 101.266 131.995 101.178C132.087 101.09 132.162 100.914 132.219 100.649H132.535Z" fill="white"/>
<path d="M140.79 112.088V112.402H135.844V112.088H136.251C136.729 112.088 137.075 111.95 137.29 111.673C137.427 111.492 137.495 111.057 137.495 110.368V102.945C137.495 102.363 137.459 101.979 137.385 101.793C137.328 101.651 137.212 101.529 137.035 101.428C136.785 101.293 136.524 101.225 136.251 101.225H135.844V100.912H140.79V101.225H140.373C139.902 101.225 139.558 101.363 139.343 101.64C139.201 101.821 139.129 102.256 139.129 102.945V110.368C139.129 110.95 139.167 111.334 139.24 111.52C139.297 111.661 139.416 111.784 139.598 111.885C139.842 112.021 140.1 112.088 140.373 112.088H140.79Z" fill="white"/>
<path d="M152.477 100.912L152.603 103.607H152.281C152.219 103.132 152.133 102.793 152.025 102.59C151.849 102.262 151.615 102.02 151.322 101.865C151.031 101.709 150.646 101.632 150.169 101.632H148.543V110.411C148.543 111.116 148.62 111.557 148.773 111.733C148.988 111.97 149.321 112.088 149.77 112.088H150.169V112.403H145.273V112.088H145.682C146.171 112.088 146.516 111.941 146.721 111.647C146.846 111.467 146.907 111.055 146.907 110.411V101.632H145.52C144.98 101.632 144.598 101.672 144.371 101.75C144.075 101.858 143.823 102.065 143.612 102.369C143.403 102.675 143.278 103.087 143.239 103.607H142.914L143.051 100.912H152.477Z" fill="white"/>
<path d="M162.644 100.912H166.733V101.225H166.507C166.358 101.225 166.138 101.289 165.851 101.42C165.563 101.55 165.3 101.737 165.063 101.979C164.827 102.222 164.537 102.618 164.191 103.165L161.364 107.53V110.411C161.364 111.116 161.445 111.557 161.606 111.733C161.825 111.97 162.171 112.088 162.644 112.088H163.024V112.403H158.045V112.088H158.459C158.956 112.088 159.307 111.941 159.514 111.647C159.641 111.467 159.705 111.055 159.705 110.411V107.691L156.489 102.878C156.109 102.313 155.85 101.959 155.715 101.819C155.579 101.678 155.299 101.507 154.872 101.31C154.757 101.253 154.59 101.225 154.371 101.225V100.912H159.385V101.225H159.125C158.854 101.225 158.606 101.288 158.377 101.411C158.15 101.536 158.036 101.722 158.036 101.97C158.036 102.173 158.212 102.541 158.563 103.072L161.01 106.775L163.309 103.233C163.655 102.702 163.828 102.307 163.828 102.047C163.828 101.889 163.786 101.747 163.703 101.623C163.619 101.499 163.499 101.402 163.345 101.331C163.188 101.26 162.955 101.225 162.644 101.225V100.912Z" fill="white"/>
<path d="M1.91593 117.998V120.631H3.14235C3.42461 120.631 3.62999 120.57 3.76085 120.446C3.89112 120.323 3.97856 120.079 4.02081 119.712H4.20565V121.98H4.02081C4.01846 121.72 3.98325 121.529 3.91929 121.407C3.85474 121.286 3.76554 121.194 3.6517 121.133C3.53669 121.073 3.36769 121.042 3.14235 121.042H1.91593V123.146C1.91593 123.486 1.93764 123.71 1.98106 123.819C2.01392 123.901 2.08258 123.971 2.18938 124.031C2.33432 124.11 2.48689 124.149 2.6465 124.149H2.88827V124.333H0V124.149H0.238244C0.515217 124.149 0.717079 124.069 0.842656 123.907C0.923048 123.802 0.962951 123.548 0.962951 123.146V118.818C0.962951 118.478 0.940653 118.254 0.898403 118.146C0.864954 118.063 0.796885 117.993 0.694193 117.933C0.552773 117.854 0.400203 117.815 0.238244 117.815H0V117.631H5.00899L5.07295 119.105H4.90043C4.81417 118.791 4.71383 118.562 4.59998 118.415C4.48497 118.269 4.34472 118.162 4.17807 118.096C4.00966 118.031 3.75205 117.998 3.40114 117.998H1.91593Z" fill="white"/>
<path d="M10.0642 117.839C9.46039 117.839 8.97804 118.062 8.61363 118.506C8.16003 119.06 7.93411 119.87 7.93411 120.937C7.93411 122.031 8.16883 122.873 8.63945 123.462C8.99975 123.91 9.47624 124.135 10.0689 124.135C10.7015 124.135 11.2232 123.889 11.6357 123.399C12.0482 122.908 12.2536 122.134 12.2536 121.075C12.2536 119.929 12.0277 119.075 11.5741 118.512C11.2097 118.063 10.7068 117.839 10.0642 117.839ZM10.1587 117.479C11.0319 117.479 11.7894 117.809 12.4302 118.47C13.0704 119.129 13.3908 119.954 13.3908 120.942C13.3908 121.96 13.0681 122.805 12.422 123.477C11.7771 124.149 10.9955 124.485 10.0789 124.485C9.15232 124.485 8.37304 124.157 7.74281 123.502C7.11258 122.846 6.79688 121.998 6.79688 120.956C6.79688 119.893 7.16128 119.025 7.88951 118.353C8.52209 117.77 9.2779 117.479 10.1587 117.479Z" fill="white"/>
<path d="M16.8222 120.888C16.885 120.888 16.9395 120.888 16.9865 120.89C17.0328 120.892 17.0704 120.893 17.0991 120.893C17.7429 120.893 18.2264 120.755 18.5533 120.478C18.8784 120.201 19.0421 119.849 19.0421 119.421C19.0421 119.001 18.91 118.663 18.6477 118.4C18.3837 118.139 18.0357 118.007 17.6026 118.007C17.4102 118.007 17.1502 118.038 16.8222 118.101V120.888ZM21.6041 124.332H19.8067L17.5275 121.199C17.3579 121.206 17.2212 121.209 17.115 121.209C17.0727 121.209 17.0252 121.209 16.9759 121.206C16.926 121.205 16.8756 121.203 16.8222 121.199V123.147C16.8222 123.568 16.8691 123.83 16.9613 123.932C17.0868 124.077 17.2758 124.15 17.5275 124.15H17.7898V124.332H14.9062V124.15H15.1592C15.4432 124.15 15.6462 124.058 15.7683 123.873C15.8387 123.771 15.8739 123.529 15.8739 123.147V118.818C15.8739 118.396 15.8264 118.134 15.7348 118.032C15.6051 117.887 15.4138 117.815 15.1592 117.815H14.9062V117.632H17.3579C18.0733 117.632 18.6002 117.684 18.9406 117.787C19.2791 117.891 19.5667 118.082 19.8037 118.36C20.0408 118.64 20.1582 118.971 20.1582 119.356C20.1582 119.768 20.0244 120.125 19.7545 120.429C19.4845 120.732 19.0661 120.945 18.4999 121.071L19.8912 122.993C20.2081 123.435 20.4815 123.727 20.7098 123.873C20.9386 124.018 21.2361 124.111 21.6041 124.15V124.332Z" fill="white"/>
<path d="M30.1249 117.479V119.796H29.9412C29.882 119.351 29.774 118.997 29.6203 118.734C29.4683 118.469 29.2476 118.261 28.9636 118.106C28.6796 117.951 28.3844 117.874 28.0793 117.874C27.7348 117.874 27.4502 117.978 27.2255 118.187C27.0002 118.397 26.8881 118.635 26.8881 118.901C26.8881 119.107 26.9591 119.292 27.1005 119.46C27.3065 119.707 27.7953 120.037 28.5658 120.448C29.1948 120.783 29.6244 121.042 29.8538 121.221C30.085 121.401 30.2616 121.612 30.386 121.857C30.5099 122.101 30.5727 122.356 30.5727 122.623C30.5727 123.13 30.3743 123.568 29.9788 123.935C29.5827 124.302 29.0739 124.485 28.4519 124.485C28.2559 124.485 28.0734 124.47 27.9003 124.442C27.7976 124.425 27.5846 124.364 27.2631 124.261C26.9397 124.157 26.7355 124.105 26.6481 124.105C26.5659 124.105 26.5008 124.131 26.4538 124.179C26.4051 124.229 26.3699 124.331 26.3459 124.485H26.1634V122.188H26.3459C26.4327 122.669 26.5477 123.029 26.6944 123.268C26.8394 123.506 27.0618 123.705 27.3622 123.863C27.6609 124.02 27.9901 124.1 28.3481 124.1C28.7618 124.1 29.088 123.991 29.328 123.775C29.5686 123.557 29.6883 123.3 29.6883 123.003C29.6883 122.838 29.6437 122.672 29.5516 122.505C29.4607 122.337 29.3192 122.179 29.1268 122.035C28.9977 121.936 28.6456 121.726 28.0699 121.404C27.4937 121.083 27.0841 120.828 26.8406 120.636C26.5964 120.445 26.4122 120.234 26.2866 120.003C26.161 119.772 26.0977 119.519 26.0977 119.242C26.0977 118.762 26.2831 118.347 26.6545 118C27.0248 117.653 27.496 117.479 28.0699 117.479C28.4267 117.479 28.8064 117.565 29.2066 117.74C29.392 117.824 29.5223 117.865 29.5986 117.865C29.6848 117.865 29.7546 117.838 29.8092 117.787C29.865 117.736 29.9084 117.633 29.9412 117.479H30.1249Z" fill="white"/>
<path d="M38.1878 117.479L38.3416 119.756H38.1878C37.9824 119.074 37.6896 118.584 37.3082 118.284C36.9285 117.984 36.4714 117.834 35.9392 117.834C35.4914 117.834 35.0877 117.948 34.7268 118.173C34.3665 118.398 34.0819 118.758 33.8754 119.252C33.6682 119.747 33.5655 120.361 33.5655 121.096C33.5655 121.701 33.6624 122.228 33.8572 122.672C34.0532 123.117 34.3472 123.458 34.7392 123.695C35.1323 123.932 35.5801 124.051 36.0818 124.051C36.5195 124.051 36.9045 123.957 37.2395 123.771C37.5734 123.585 37.9408 123.216 38.3416 122.662L38.4953 122.761C38.1591 123.358 37.7647 123.794 37.3135 124.071C36.8634 124.347 36.3288 124.485 35.7103 124.485C34.5936 124.485 33.7304 124.074 33.1184 123.25C32.6607 122.638 32.4336 121.915 32.4336 121.086C32.4336 120.417 32.5832 119.802 32.8848 119.242C33.1859 118.682 33.6008 118.249 34.1295 117.94C34.657 117.632 35.2338 117.479 35.8594 117.479C36.3453 117.479 36.8258 117.597 37.3 117.834C37.4379 117.907 37.5371 117.943 37.5975 117.943C37.6861 117.943 37.7647 117.912 37.8299 117.849C37.9167 117.76 37.9772 117.636 38.0135 117.479H38.1878Z" fill="white"/>
<path d="M42.9342 124.149V124.332H40.0488V124.149H40.2877C40.5658 124.149 40.7677 124.07 40.8932 123.908C40.9719 123.802 41.0118 123.548 41.0118 123.147V118.817C41.0118 118.479 40.9912 118.254 40.9478 118.146C40.915 118.064 40.8463 117.992 40.7448 117.933C40.5981 117.854 40.4461 117.814 40.2877 117.814H40.0488V117.632H42.9342V117.814H42.6912C42.4166 117.814 42.2159 117.895 42.0897 118.057C42.0064 118.162 41.9653 118.416 41.9653 118.817V123.147C41.9653 123.485 41.9871 123.709 42.0305 123.819C42.0633 123.9 42.1332 123.972 42.2388 124.031C42.3814 124.111 42.5316 124.149 42.6912 124.149H42.9342Z" fill="white"/>
<path d="M46.255 117.998V120.646H47.7343C48.1181 120.646 48.3745 120.589 48.5036 120.473C48.6756 120.322 48.7724 120.056 48.7918 119.672H48.9754V122.006H48.7918C48.746 121.679 48.6996 121.469 48.6527 121.377C48.5934 121.263 48.4954 121.172 48.3599 121.106C48.2243 121.04 48.016 121.008 47.7343 121.008H46.255V123.215C46.255 123.513 46.2673 123.693 46.2949 123.757C46.3201 123.821 46.3677 123.872 46.4328 123.909C46.4991 123.948 46.6253 123.967 46.8101 123.967H47.952C48.3335 123.967 48.6104 123.941 48.7818 123.888C48.9537 123.835 49.1192 123.732 49.2794 123.577C49.4836 123.372 49.6943 123.064 49.9096 122.652H50.108L49.527 124.333H44.3379V124.149H44.5761C44.7357 124.149 44.8854 124.112 45.0286 124.037C45.1336 123.983 45.2064 123.903 45.2439 123.798C45.2827 123.693 45.3008 123.477 45.3008 123.151V118.799C45.3008 118.373 45.258 118.112 45.1712 118.013C45.0526 117.88 44.8543 117.815 44.5761 117.815H44.3379V117.631H49.527L49.601 119.1H49.4073C49.3387 118.747 49.2612 118.505 49.1761 118.373C49.0928 118.241 48.9672 118.14 48.8011 118.072C48.6697 118.022 48.4362 117.998 48.1023 117.998H46.255Z" fill="white"/>
<path d="M51.1562 117.632H52.983L57.0994 122.656V118.793C57.0994 118.382 57.0531 118.124 56.9604 118.022C56.8383 117.883 56.6447 117.814 56.3794 117.814H56.1459V117.632H58.489V117.814H58.2508C57.9667 117.814 57.7649 117.9 57.6463 118.072C57.5736 118.177 57.536 118.418 57.536 118.793V124.441H57.357L52.919 119.045V123.17C52.919 123.583 52.9636 123.839 53.0516 123.943C53.179 124.081 53.3726 124.149 53.6338 124.149H53.872V124.333H51.5289V124.149H51.7612C52.05 124.149 52.2536 124.064 52.3721 123.893C52.4455 123.787 52.4818 123.547 52.4818 123.17V118.512C52.287 118.285 52.1386 118.133 52.0382 118.061C51.9367 117.988 51.7877 117.922 51.5928 117.859C51.4972 117.83 51.3511 117.814 51.1562 117.814V117.632Z" fill="white"/>
<path d="M65.7035 117.479L65.8572 119.756H65.7035C65.4992 119.074 65.2053 118.584 64.8238 118.284C64.4442 117.984 63.987 117.834 63.4548 117.834C63.0071 117.834 62.6028 117.948 62.2425 118.173C61.8822 118.398 61.5976 118.758 61.391 119.252C61.1839 119.747 61.0812 120.361 61.0812 121.096C61.0812 121.701 61.178 122.228 61.3728 122.672C61.5688 123.117 61.8628 123.458 62.2548 123.695C62.6479 123.932 63.0957 124.051 63.5974 124.051C64.0352 124.051 64.4213 123.957 64.7552 123.771C65.0891 123.585 65.4564 123.216 65.8572 122.662L66.0121 122.761C65.6747 123.358 65.2798 123.794 64.8291 124.071C64.3802 124.347 63.8456 124.485 63.226 124.485C62.1093 124.485 61.2461 124.074 60.634 123.25C60.1763 122.638 59.9492 121.915 59.9492 121.086C59.9492 120.417 60.0989 119.802 60.4005 119.242C60.7015 118.682 61.1164 118.249 61.6451 117.94C62.1726 117.632 62.7495 117.479 63.375 117.479C63.8621 117.479 64.3415 117.597 64.8156 117.834C64.9535 117.907 65.0527 117.943 65.1131 117.943C65.2011 117.943 65.2798 117.912 65.3467 117.849C65.4323 117.76 65.494 117.636 65.5292 117.479H65.7035Z" fill="white"/>
<path d="M69.4374 117.998V120.646H70.9179C71.3017 120.646 71.5581 120.589 71.6861 120.473C71.8592 120.322 71.9548 120.056 71.9754 119.672H72.159V122.006H71.9754C71.9278 121.679 71.8821 121.469 71.8363 121.377C71.777 121.263 71.679 121.172 71.5423 121.106C71.4067 121.04 71.1984 121.008 70.9179 121.008H69.4374V123.215C69.4374 123.513 69.4509 123.693 69.4773 123.757C69.5037 123.821 69.5501 123.872 69.6164 123.909C69.6815 123.948 69.8089 123.967 69.9925 123.967H71.1356C71.5171 123.967 71.7929 123.941 71.9642 123.888C72.1361 123.835 72.3016 123.732 72.4618 123.577C72.666 123.372 72.8767 123.064 73.092 122.652H73.2916L72.7095 124.333H67.5215V124.149H67.7597C67.9182 124.149 68.0678 124.112 68.211 124.037C68.3172 123.983 68.3888 123.903 68.4275 123.798C68.4651 123.693 68.4844 123.477 68.4844 123.151V118.799C68.4844 118.373 68.4404 118.112 68.3548 118.013C68.2362 117.88 68.0379 117.815 67.7597 117.815H67.5215V117.631H72.7095L72.7846 119.1H72.5897C72.5211 118.747 72.4436 118.505 72.3597 118.373C72.2752 118.241 72.1508 118.14 71.9836 118.072C71.8533 118.022 71.6186 117.998 71.2847 117.998H69.4374Z" fill="white"/>
<path d="M80.586 120.147C80.9973 119.952 81.303 119.732 81.5078 119.485C81.7109 119.238 81.8124 118.962 81.8124 118.66C81.8124 118.423 81.739 118.227 81.5923 118.072C81.4451 117.916 81.262 117.84 81.0431 117.84C80.7556 117.84 80.5379 117.939 80.39 118.139C80.2427 118.337 80.1687 118.533 80.1687 118.724C80.1687 118.885 80.1963 119.065 80.2533 119.265C80.309 119.464 80.4205 119.758 80.586 120.147ZM81.3564 123.235C80.9187 122.642 80.6147 122.209 80.4469 121.936C80.2785 121.662 80.0925 121.324 79.8906 120.918C79.4933 121.146 79.1946 121.395 78.9951 121.668C78.7944 121.942 78.6953 122.238 78.6953 122.559C78.6953 122.91 78.8079 123.221 79.0362 123.488C79.2651 123.754 79.5737 123.888 79.9604 123.888C80.1687 123.888 80.3706 123.847 80.5631 123.764C80.7579 123.682 81.0214 123.506 81.3564 123.235ZM82.4825 120.018H84.568V120.201C84.2805 120.224 84.0675 120.288 83.9308 120.392C83.7929 120.495 83.5787 120.81 83.287 121.332C82.9954 121.857 82.6691 122.346 82.3036 122.801C82.5987 123.143 82.8616 123.383 83.0934 123.519C83.3258 123.656 83.5582 123.725 83.794 123.725C84.0229 123.725 84.216 123.663 84.3744 123.54C84.5328 123.416 84.6455 123.234 84.7124 122.993L84.8961 123.126C84.774 123.591 84.5768 123.934 84.3057 124.155C84.0346 124.376 83.7178 124.485 83.3575 124.485C83.0852 124.485 82.8094 124.412 82.5301 124.265C82.2507 124.119 81.9456 123.871 81.6141 123.523C81.2027 123.885 80.8342 124.136 80.5038 124.277C80.1746 124.416 79.8225 124.485 79.4487 124.485C78.9018 124.485 78.4688 124.341 78.1472 124.051C77.8268 123.761 77.666 123.415 77.666 123.014C77.666 122.614 77.811 122.216 78.0991 121.82C78.3866 121.423 78.9277 121.012 79.7222 120.587C79.5661 120.245 79.4599 119.964 79.4041 119.744C79.3484 119.525 79.3196 119.316 79.3196 119.114C79.3196 118.551 79.5285 118.122 79.9458 117.825C80.2703 117.594 80.6394 117.478 81.0531 117.478C81.4462 117.478 81.7678 117.595 82.016 117.826C82.2637 118.059 82.3886 118.346 82.3886 118.684C82.3886 119.033 82.2683 119.34 82.0278 119.603C81.7883 119.867 81.3641 120.155 80.7556 120.468C81.1751 121.212 81.6141 121.895 82.0712 122.514C82.6533 121.822 82.9449 121.239 82.9449 120.765C82.9449 120.614 82.8951 120.478 82.7959 120.36C82.7225 120.27 82.6181 120.218 82.4825 120.201V120.018Z" fill="white"/>
<path d="M94.6799 117.632L94.7551 119.203H94.5649C94.5286 118.926 94.4793 118.729 94.4165 118.61C94.3144 118.419 94.1765 118.279 94.0075 118.188C93.8367 118.098 93.612 118.051 93.3338 118.051H92.3861V123.171C92.3861 123.583 92.4313 123.84 92.5193 123.943C92.6455 124.081 92.8385 124.149 93.1014 124.149H93.3338V124.333H90.479V124.149H90.7184C91.0013 124.149 91.2031 124.064 91.3228 123.893C91.3956 123.787 91.432 123.547 91.432 123.171V118.051H90.6228C90.3082 118.051 90.0858 118.074 89.9526 118.122C89.7807 118.184 89.6334 118.304 89.5108 118.482C89.3875 118.66 89.3148 118.899 89.2919 119.203H89.1035L89.1833 117.632H94.6799Z" fill="white"/>
<path d="M98.08 117.998V120.646H99.5593C99.9443 120.646 100.201 120.589 100.329 120.473C100.502 120.322 100.599 120.056 100.618 119.672H100.802V122.006H100.618C100.571 121.679 100.525 121.469 100.479 121.377C100.42 121.263 100.322 121.172 100.186 121.106C100.049 121.04 99.841 121.008 99.5593 121.008H98.08V123.215C98.08 123.513 98.0935 123.693 98.1199 123.757C98.1463 123.821 98.1927 123.872 98.259 123.909C98.3253 123.948 98.4514 123.967 98.6363 123.967H99.7782C100.158 123.967 100.435 123.941 100.607 123.888C100.78 123.835 100.946 123.732 101.104 123.577C101.309 123.372 101.519 123.064 101.735 122.652H101.934L101.352 124.333H96.1641V124.149H96.4011C96.5607 124.149 96.7121 124.112 96.8536 124.037C96.9598 123.983 97.0314 123.903 97.0701 123.798C97.1076 123.693 97.127 123.477 97.127 123.151V118.799C97.127 118.373 97.083 118.112 96.9973 118.013C96.8776 117.88 96.6793 117.815 96.4011 117.815H96.1641V117.631H101.352L101.427 119.1H101.233C101.164 118.747 101.087 118.505 101.002 118.373C100.918 118.241 100.792 118.14 100.627 118.072C100.495 118.022 100.262 117.998 99.9273 117.998H98.08Z" fill="white"/>
<path d="M109.238 117.479L109.392 119.756H109.238C109.032 119.074 108.74 118.584 108.358 118.284C107.977 117.984 107.521 117.834 106.989 117.834C106.541 117.834 106.138 117.948 105.777 118.173C105.417 118.398 105.132 118.758 104.925 119.252C104.718 119.747 104.614 120.361 104.614 121.096C104.614 121.701 104.712 122.228 104.907 122.672C105.103 123.117 105.397 123.458 105.789 123.695C106.182 123.932 106.63 124.051 107.132 124.051C107.57 124.051 107.954 123.957 108.29 123.771C108.623 123.585 108.991 123.216 109.392 122.662L109.545 122.761C109.209 123.358 108.813 123.794 108.363 124.071C107.913 124.347 107.379 124.485 106.759 124.485C105.644 124.485 104.78 124.074 104.168 123.25C103.711 122.638 103.482 121.915 103.482 121.086C103.482 120.417 103.633 119.802 103.935 119.242C104.236 118.682 104.651 118.249 105.178 117.94C105.707 117.632 106.283 117.479 106.909 117.479C107.395 117.479 107.876 117.597 108.349 117.834C108.488 117.907 108.587 117.943 108.646 117.943C108.736 117.943 108.813 117.912 108.88 117.849C108.966 117.76 109.027 117.636 109.064 117.479H109.238Z" fill="white"/>
<path d="M112.935 120.739H116.064V118.822C116.064 118.48 116.042 118.254 116 118.145C115.967 118.064 115.896 117.992 115.791 117.933C115.649 117.854 115.497 117.814 115.339 117.814H115.101V117.632H117.981V117.814H117.743C117.583 117.814 117.433 117.852 117.29 117.928C117.185 117.981 117.112 118.061 117.075 118.167C117.036 118.274 117.018 118.493 117.018 118.822V123.147C117.018 123.485 117.04 123.709 117.082 123.818C117.115 123.901 117.183 123.972 117.285 124.031C117.43 124.111 117.583 124.149 117.743 124.149H117.981V124.332H115.101V124.149H115.339C115.614 124.149 115.814 124.068 115.939 123.908C116.023 123.803 116.064 123.549 116.064 123.147V121.106H112.935V123.147C112.935 123.485 112.957 123.709 113.001 123.818C113.033 123.901 113.104 123.972 113.209 124.031C113.352 124.111 113.502 124.149 113.661 124.149H113.904V124.332H111.02V124.149H111.258C111.536 124.149 111.738 124.068 111.864 123.908C111.943 123.803 111.982 123.549 111.982 123.147V118.822C111.982 118.48 111.96 118.254 111.918 118.145C111.884 118.064 111.816 117.992 111.715 117.933C111.569 117.854 111.416 117.814 111.258 117.814H111.02V117.632H113.904V117.814H113.661C113.502 117.814 113.352 117.852 113.209 117.928C113.106 117.981 113.036 118.061 112.995 118.167C112.956 118.274 112.935 118.493 112.935 118.822V120.739Z" fill="white"/>
<path d="M119.002 117.632H120.83L124.946 122.656V118.793C124.946 118.382 124.899 118.124 124.806 118.022C124.684 117.883 124.49 117.814 124.225 117.814H123.992V117.632H126.336V117.814H126.098C125.812 117.814 125.612 117.9 125.492 118.072C125.419 118.177 125.382 118.418 125.382 118.793V124.441H125.204L120.766 119.045V123.17C120.766 123.583 120.809 123.839 120.899 123.943C121.025 124.081 121.219 124.149 121.479 124.149H121.719V124.333H119.375V124.149H119.608C119.896 124.149 120.099 124.064 120.219 123.893C120.292 123.787 120.328 123.547 120.328 123.17V118.512C120.133 118.285 119.984 118.133 119.884 118.061C119.784 117.988 119.635 117.922 119.439 117.859C119.343 117.83 119.198 117.814 119.002 117.814V117.632Z" fill="white"/>
<path d="M131.051 117.839C130.448 117.839 129.966 118.062 129.6 118.506C129.148 119.06 128.92 119.87 128.92 120.937C128.92 122.031 129.156 122.873 129.626 123.462C129.986 123.91 130.463 124.135 131.055 124.135C131.687 124.135 132.209 123.889 132.622 123.399C133.035 122.908 133.241 122.134 133.241 121.075C133.241 119.929 133.014 119.075 132.56 118.512C132.196 118.063 131.693 117.839 131.051 117.839ZM131.145 117.479C132.018 117.479 132.777 117.809 133.417 118.47C134.057 119.129 134.377 119.954 134.377 120.942C134.377 121.96 134.054 122.805 133.41 123.477C132.765 124.149 131.982 124.485 131.065 124.485C130.139 124.485 129.361 124.157 128.729 123.502C128.099 122.846 127.783 121.998 127.783 120.956C127.783 119.893 128.147 119.025 128.876 118.353C129.508 117.77 130.264 117.479 131.145 117.479Z" fill="white"/>
<path d="M141.547 122.479L141.711 122.514L141.136 124.332H135.922V124.15H136.175C136.459 124.15 136.664 124.058 136.786 123.873C136.855 123.767 136.89 123.523 136.89 123.142V118.817C136.89 118.399 136.844 118.138 136.75 118.032C136.621 117.887 136.43 117.815 136.175 117.815H135.922V117.632H138.97V117.815C138.614 117.811 138.362 117.844 138.218 117.914C138.074 117.983 137.976 118.07 137.923 118.175C137.869 118.281 137.843 118.533 137.843 118.931V123.142C137.843 123.416 137.869 123.603 137.923 123.704C137.963 123.775 138.023 123.825 138.107 123.858C138.189 123.891 138.446 123.908 138.881 123.908H139.373C139.889 123.908 140.251 123.87 140.461 123.794C140.667 123.718 140.859 123.585 141.031 123.391C141.203 123.199 141.375 122.894 141.547 122.479Z" fill="white"/>
<path d="M146.502 117.839C145.899 117.839 145.417 118.062 145.051 118.506C144.599 119.06 144.372 119.87 144.372 120.937C144.372 122.031 144.608 122.873 145.077 123.462C145.437 123.91 145.914 124.135 146.506 124.135C147.139 124.135 147.661 123.889 148.073 123.399C148.486 122.908 148.692 122.134 148.692 121.075C148.692 119.929 148.465 119.075 148.012 118.512C147.647 118.063 147.144 117.839 146.502 117.839ZM146.596 117.479C147.469 117.479 148.228 117.809 148.868 118.47C149.508 119.129 149.828 119.954 149.828 120.942C149.828 121.96 149.506 122.805 148.861 123.477C148.216 124.149 147.433 124.485 146.516 124.485C145.59 124.485 144.812 124.157 144.18 123.502C143.55 122.846 143.234 121.998 143.234 120.956C143.234 119.893 143.599 119.025 144.327 118.353C144.96 117.77 145.715 117.479 146.596 117.479Z" fill="white"/>
<path d="M157.409 117.479L157.584 119.593H157.409C157.234 119.067 157.006 118.67 156.729 118.403C156.329 118.017 155.814 117.825 155.185 117.825C154.328 117.825 153.675 118.162 153.229 118.838C152.855 119.408 152.667 120.085 152.667 120.873C152.667 121.512 152.792 122.096 153.04 122.623C153.288 123.149 153.613 123.536 154.016 123.781C154.418 124.027 154.83 124.15 155.255 124.15C155.503 124.15 155.742 124.118 155.975 124.055C156.206 123.993 156.429 123.901 156.645 123.778V121.842C156.645 121.506 156.619 121.285 156.567 121.182C156.517 121.079 156.437 121 156.329 120.945C156.223 120.89 156.033 120.863 155.76 120.863V120.675H158.368V120.863H158.244C157.985 120.863 157.808 120.949 157.712 121.121C157.646 121.242 157.612 121.482 157.612 121.842V123.892C157.233 124.097 156.857 124.247 156.486 124.342C156.115 124.437 155.702 124.485 155.249 124.485C153.948 124.485 152.96 124.071 152.285 123.24C151.778 122.617 151.525 121.9 151.525 121.086C151.525 120.496 151.667 119.931 151.953 119.391C152.29 118.749 152.753 118.254 153.342 117.908C153.836 117.621 154.419 117.479 155.09 117.479C155.336 117.479 155.559 117.498 155.759 117.538C155.959 117.578 156.242 117.665 156.609 117.8C156.796 117.869 156.919 117.905 156.982 117.905C157.045 117.905 157.099 117.875 157.143 117.817C157.189 117.759 157.216 117.647 157.226 117.479H157.409Z" fill="white"/>
<path d="M164.306 117.632H166.654V117.814H166.526C166.44 117.814 166.314 117.853 166.149 117.928C165.983 118.004 165.833 118.112 165.696 118.255C165.561 118.396 165.393 118.626 165.195 118.947L163.572 121.491V123.171C163.572 123.583 163.618 123.84 163.71 123.943C163.835 124.081 164.034 124.149 164.306 124.149H164.525V124.333H161.664V124.149H161.903C162.188 124.149 162.39 124.064 162.509 123.893C162.581 123.787 162.617 123.547 162.617 123.171V121.585L160.771 118.778C160.552 118.448 160.404 118.243 160.326 118.16C160.249 118.078 160.088 117.98 159.842 117.864C159.776 117.831 159.68 117.814 159.555 117.814V117.632H162.435V117.814H162.285C162.13 117.814 161.987 117.851 161.856 117.923C161.725 117.995 161.66 118.105 161.66 118.25C161.66 118.368 161.761 118.582 161.963 118.892L163.367 121.052L164.688 118.987C164.887 118.676 164.986 118.446 164.986 118.294C164.986 118.201 164.962 118.119 164.915 118.047C164.866 117.974 164.798 117.917 164.709 117.876C164.619 117.835 164.485 117.814 164.306 117.814V117.632Z" fill="white"/>
<path d="M116.187 40.1097H116.184L116.187 40.1442V40.1097Z" fill="white"/>
<path d="M63.452 71.5686L67.498 73.8125L65.4295 81.2204L70.6081 75.5366L74.6512 77.78L68.6875 88.5332L66.1678 87.1348L70.7161 78.9342L64.226 86.0592L61.9457 84.7941L64.5564 75.5196L60.008 83.7184L57.4883 82.3213L63.452 71.5686Z" fill="white"/>
<path d="M82.5829 78.4066L86.0791 78.7235L85.416 86.0204C85.3497 86.7434 85.1836 87.4176 84.9166 88.0402C84.6491 88.6646 84.2717 89.1968 83.7818 89.6381C83.2918 90.0788 82.7936 90.3751 82.2854 90.5248C81.5801 90.7354 80.7503 90.7971 79.7956 90.7102C79.244 90.6603 78.6466 90.5647 78.0017 90.4221C77.3574 90.2783 76.8275 90.0641 76.4115 89.776C75.9948 89.4896 75.6275 89.1 75.3042 88.6112C74.9826 88.1224 74.7754 87.6289 74.6862 87.1319C74.5413 86.335 74.4949 85.6343 74.5495 85.0334L75.2114 77.7376L78.7071 78.0545L78.0299 85.524C77.9694 86.1918 78.0927 86.7293 78.4013 87.1354C78.7106 87.542 79.1695 87.7744 79.778 87.829C80.3812 87.883 80.87 87.7415 81.2473 87.403C81.6235 87.0644 81.8424 86.555 81.9046 85.8761L82.5829 78.4066Z" fill="white"/>
<path d="M88.8396 86.5512L91.9943 85.4105C92.2267 85.9539 92.4913 86.3441 92.7906 86.5776C93.2753 86.9567 93.8416 87.0529 94.4888 86.8669C94.9712 86.7279 95.3092 86.5002 95.4999 86.1798C95.6912 85.8606 95.7405 85.5402 95.6478 85.2168C95.5592 84.9111 95.3561 84.6717 95.0392 84.5021C94.72 84.3313 94.0775 84.2685 93.1098 84.3131C91.5237 84.3789 90.3289 84.2046 89.5256 83.7885C88.7176 83.376 88.18 82.7059 87.9154 81.7817C87.7411 81.1743 87.7388 80.5535 87.9107 79.9197C88.0809 79.286 88.45 78.7209 89.0162 78.2238C89.5813 77.7268 90.434 77.3155 91.5736 76.9874C92.9719 76.5872 94.1185 76.562 95.014 76.9123C95.9089 77.2632 96.6019 78.0325 97.0931 79.2185L93.9636 80.3334C93.7266 79.8252 93.4373 79.4902 93.0963 79.3259C92.7566 79.1627 92.3464 79.1481 91.8687 79.286C91.4756 79.3986 91.2056 79.5729 91.0583 79.8112C90.9105 80.0482 90.8741 80.2947 90.948 80.5535C91.0026 80.7412 91.1329 80.8862 91.34 80.9906C91.5442 81.1004 91.9644 81.1368 92.5993 81.1004C94.1766 81.0206 95.3356 81.064 96.0755 81.2324C96.8161 81.4014 97.4076 81.7054 97.8483 82.142C98.2884 82.5797 98.6017 83.1219 98.7866 83.7668C99.0043 84.5238 99.0108 85.2784 98.8048 86.0284C98.6006 86.7813 98.1974 87.4209 97.5965 87.9519C96.9939 88.483 96.163 88.899 95.1032 89.2042C93.2418 89.7376 91.8417 89.7217 90.9034 89.152C89.9645 88.5845 89.2762 87.7172 88.8396 86.5512Z" fill="white"/>
<path d="M96.4805 75.842L102.154 72.5277L105.114 69.5297L106.905 71.982L104.009 74.0986L109.474 81.5745L106.635 83.6506L101.169 76.1747L98.272 78.2925L96.4805 75.842Z" fill="white"/>
<path d="M51.9615 65.8073L47.5739 66.9867L46.4648 65.2521L46.6162 65.1553L46.7043 65.2944C46.7852 65.4188 46.8774 65.5027 46.9824 65.5397C47.054 65.569 47.1455 65.5702 47.2547 65.5438C47.3357 65.5256 47.5123 65.4276 47.7869 65.2521L51.4363 62.9172C51.7197 62.7371 51.8887 62.6127 51.9456 62.5446C52.0014 62.4759 52.1575 62.368 52.1645 62.2629C52.1733 62.1579 52.1381 62.0464 52.0618 61.9267L51.9738 61.7888L52.1246 61.692L53.4226 63.9359L53.2718 64.0327L53.182 63.8937C53.1022 63.7687 53.0089 63.6865 52.9039 63.6478C52.8323 63.619 52.7408 63.619 52.6281 63.6466C52.5483 63.666 52.3693 63.764 52.0912 63.9418L47.9888 66.566L54.0822 64.9687L54.1303 65.0438L50.1782 69.9079L54.0769 67.4151C54.3492 67.2408 54.5129 67.1282 54.5681 67.0777C54.6866 66.9638 54.7605 66.8342 54.7869 66.688C54.8151 66.5413 54.7664 66.3712 54.642 66.1775L54.7934 66.0807L55.7247 67.5372L55.5733 67.634L55.5457 67.5906C55.4888 67.4949 55.4125 67.4198 55.318 67.3641C55.2241 67.3095 55.1285 67.2842 55.0305 67.2878C54.9337 67.2901 54.8128 67.3206 54.6702 67.3799C54.6373 67.3957 54.4971 67.4826 54.25 67.641L50.7468 69.8803C50.4675 70.0593 50.2996 70.1825 50.2451 70.2506C50.1905 70.318 50.1588 70.4037 50.1518 70.5093C50.1447 70.6132 50.1782 70.7259 50.2544 70.8456L50.3407 70.98L50.1905 71.0768L49.0779 69.3369L51.9615 65.8073Z" fill="white"/>
<path d="M51.2605 59.8848L51.4442 59.8959L52.4036 62.1745L52.2429 62.2531L52.1701 62.1023C52.1061 61.9703 52.0251 61.877 51.9248 61.8265C51.8556 61.789 51.7652 61.7767 51.6502 61.7937C51.5692 61.8019 51.3791 61.8782 51.0827 62.0213L47.1887 63.8985C46.8865 64.0435 46.7028 64.1462 46.6394 64.2084C46.5755 64.27 46.5332 64.351 46.5127 64.4537C46.4921 64.5552 46.5127 64.6714 46.5731 64.7987L46.6471 64.9495L46.4845 65.027L45.3379 62.6463L45.4998 62.5688L45.5726 62.7191C45.6366 62.8523 45.7181 62.9426 45.8173 62.9949C45.8871 63.0336 45.9793 63.0459 46.0943 63.0312C46.1753 63.0224 46.3648 62.9462 46.6611 62.8036L50.5552 60.9264C50.858 60.7814 51.1444 60.5972 51.2071 60.5356C51.2705 60.4739 51.3128 60.3918 51.3333 60.2891C51.3538 60.187 51.3333 60.0726 51.2717 59.9441L51.2605 59.8848Z" fill="white"/>
<path d="M43.9297 59.4978L45.9571 58.6692L46.0129 58.8118C45.5264 59.077 45.1778 59.401 44.9678 59.7859C44.7583 60.1691 44.7125 60.5141 44.831 60.8199C44.9226 61.0558 45.0775 61.2118 45.294 61.2858C45.5117 61.3597 45.7271 61.3556 45.9424 61.2723C46.0768 61.2206 46.1883 61.1491 46.2752 61.0593C46.3913 60.9372 46.4893 60.7764 46.5703 60.5746C46.6272 60.4267 46.7059 60.1063 46.8062 59.6151C46.9453 58.9268 47.1342 58.4263 47.3737 58.1129C47.6131 57.8019 47.9346 57.5672 48.339 57.4111C48.8507 57.2127 49.35 57.1957 49.8377 57.3589C50.3265 57.5238 50.6615 57.843 50.844 58.3148C50.9021 58.4632 50.9362 58.6123 50.9479 58.7584C50.9602 58.9063 50.9508 59.0999 50.9203 59.3417C50.9021 59.4749 50.908 59.5788 50.9362 59.6503C50.9591 59.7108 51.0136 59.7624 51.1005 59.8064C51.1867 59.851 51.2988 59.8692 51.4391 59.8645L51.4889 59.9925L49.1746 60.8879L49.1253 60.7594C49.7373 60.405 50.1569 60.0177 50.3857 59.5934C50.6158 59.1698 50.6651 58.7913 50.5342 58.455C50.4339 58.1951 50.2625 58.0243 50.019 57.941C49.7761 57.8588 49.5319 57.8635 49.2884 57.9592C49.1435 58.0149 49.015 58.0982 48.9029 58.2109C48.7902 58.3206 48.6946 58.4609 48.6195 58.6293C48.5443 58.796 48.4681 59.0706 48.3912 59.4532C48.2832 59.9878 48.1682 60.3856 48.0485 60.6491C47.9288 60.9108 47.7692 61.1379 47.5697 61.3316C47.3713 61.5252 47.129 61.6766 46.8426 61.7875C46.355 61.9765 45.8855 61.9993 45.4354 61.8567C44.9859 61.7141 44.6785 61.4331 44.5165 61.0135C44.4572 60.8609 44.4244 60.7037 44.4162 60.5405C44.4097 60.4185 44.4267 60.2589 44.4631 60.064C44.5007 59.8704 44.5077 59.7419 44.4836 59.6791C44.4596 59.6187 44.4173 59.5811 44.3557 59.5653C44.2935 59.5488 44.1656 59.5617 43.9696 59.6016L43.9297 59.4978Z" fill="white"/>
<path d="M43.6681 56.9107L46.4536 56.186L46.3997 55.9806C46.3134 55.6467 46.2084 55.4061 46.0851 55.2618C45.9613 55.1168 45.7853 55.0223 45.5529 54.9813C45.3193 54.9414 45.0359 54.9642 44.7008 55.0517C44.2173 55.1773 43.8822 55.3574 43.6956 55.5921C43.5096 55.8269 43.4674 56.1379 43.5677 56.5246L43.6681 56.9107ZM46.7864 56.0991L48.5685 55.6356C48.9118 55.5464 49.1248 55.4736 49.2046 55.4178C49.2856 55.3621 49.3413 55.2876 49.3742 55.1919C49.4053 55.0963 49.3924 54.9367 49.3354 54.7125L49.5086 54.6679L50.1593 57.1706L49.9862 57.2158C49.927 56.9893 49.8601 56.8432 49.7844 56.7775C49.7092 56.71 49.6218 56.6724 49.5267 56.6625C49.4311 56.6543 49.2105 56.693 48.8672 56.7822L44.7396 57.8566C44.3963 57.9464 44.1845 58.0186 44.1035 58.0743C44.0225 58.1289 43.9667 58.2052 43.9356 58.3008C43.9028 58.3977 43.9163 58.5561 43.9744 58.7797L43.8013 58.8254L43.2098 56.5527C43.056 55.9612 42.9968 55.5147 43.0308 55.2125C43.0654 54.9097 43.2033 54.6368 43.4445 54.3886C43.6863 54.1404 43.9984 53.9661 44.3828 53.8669C44.8522 53.7449 45.2736 53.7742 45.6474 53.9543C45.8844 54.0694 46.0898 54.2642 46.2641 54.5359L48.1114 52.8013C48.3496 52.5754 48.4946 52.4204 48.5468 52.3371C48.6166 52.2133 48.6413 52.0854 48.6166 51.9522L48.7897 51.9076L49.1899 53.4485L46.703 55.7781L46.7864 56.0991Z" fill="white"/>
<path d="M42.1174 51.5316L41.9214 48.9309L42.1004 48.9162L42.1103 49.0459C42.1244 49.2431 42.162 49.3745 42.2201 49.4438C42.2782 49.5124 42.3556 49.5599 42.4513 49.584C42.5469 49.6069 42.7816 49.6057 43.1554 49.577L46.3635 49.3358C46.9497 49.2912 47.3359 49.2284 47.5207 49.1462C47.7061 49.0629 47.8546 48.9391 47.9684 48.7736C48.0823 48.6076 48.1304 48.4069 48.1122 48.1686C48.0917 47.8963 47.9948 47.6704 47.8211 47.4903C47.6469 47.3101 47.4168 47.1828 47.1287 47.1077C46.8424 47.0343 46.35 47.0232 45.6547 47.0754L42.9823 47.2761C42.6895 47.2978 42.4812 47.3377 42.3591 47.3946C42.2371 47.4515 42.1549 47.5167 42.1127 47.593C42.0458 47.7092 42.0206 47.8699 42.0364 48.073L41.8586 48.0865L41.7266 46.3437L41.9055 46.3302L41.9132 46.434C41.9237 46.5754 41.9701 46.6905 42.0511 46.7791C42.132 46.8683 42.2482 46.9264 42.399 46.958C42.5058 46.9833 42.6919 46.9844 42.9594 46.9651L45.4475 46.7779C46.2168 46.7198 46.776 46.7169 47.1228 46.7679C47.4702 46.8213 47.7994 46.988 48.1087 47.269C48.4173 47.5495 48.5928 47.9509 48.6315 48.4738C48.6638 48.9103 48.6145 49.2525 48.4801 49.5018C48.2988 49.8416 48.0518 50.091 47.7402 50.2494C47.428 50.4067 46.9996 50.5059 46.4551 50.547L43.247 50.7887C42.8708 50.8181 42.6373 50.8515 42.5469 50.8902C42.4583 50.929 42.3897 50.9912 42.3398 51.0745C42.2917 51.1566 42.277 51.3057 42.2952 51.5181L42.1174 51.5316Z" fill="white"/>
<path d="M41.8207 44.3759L46.024 42.1067L43.2043 41.9541C42.81 41.9324 42.5418 41.9612 42.3987 42.0398C42.2056 42.149 42.1035 42.345 42.0953 42.6243L41.9163 42.6149L42.0067 40.9478L42.1862 40.9572C42.2091 41.1737 42.2478 41.3192 42.2995 41.3955C42.3517 41.4718 42.4409 41.5334 42.5671 41.5815C42.6915 41.6285 42.9092 41.6613 43.219 41.6783L48.6804 41.9747L48.6746 42.102L43.0265 45.218L47.1976 45.4439C47.5749 45.4644 47.8325 45.4116 47.9716 45.2854C48.1118 45.161 48.1869 45.012 48.1957 44.8406L48.2016 44.7221L48.3806 44.7315L48.2838 46.5219L48.1048 46.5125C48.1171 46.2337 48.0525 46.0366 47.9135 45.9192C47.7744 45.8018 47.5303 45.7344 47.1829 45.715L42.5524 45.4644L42.3723 45.5624C42.1921 45.6604 42.0724 45.7479 42.0131 45.8265C41.9539 45.9063 41.9175 46.0225 41.9028 46.1756L41.7227 46.1651L41.8207 44.3759Z" fill="white"/>
<path d="M48.7129 39.2094L48.8907 39.2358L48.494 41.8489L48.3174 41.8225L48.3414 41.6564C48.3643 41.5115 48.3485 41.3894 48.2945 41.2914C48.2593 41.221 48.19 41.1594 48.0873 41.1083C48.0152 41.0714 47.8151 41.0262 47.49 40.9769L43.2163 40.3285C42.8847 40.2786 42.674 40.2604 42.5872 40.2751C42.4998 40.2897 42.4188 40.3332 42.3443 40.4059C42.2703 40.4781 42.2216 40.5849 42.2011 40.7251L42.1758 40.8906L41.998 40.8642L42.3936 38.2512L42.5714 38.2782L42.5461 38.4448C42.5244 38.5886 42.5397 38.7112 42.5931 38.8092C42.6295 38.8802 42.6987 38.9418 42.8014 38.9952C42.8736 39.034 43.0725 39.0786 43.3976 39.1273L47.6713 39.7757C48.004 39.8262 48.2135 39.8432 48.3004 39.8273C48.3872 39.8121 48.4688 39.7669 48.5433 39.6947C48.6184 39.6219 48.6671 39.5157 48.6877 39.3749L48.7129 39.2094Z" fill="white"/>
<path d="M43.7264 32.9968L43.9006 33.0414C43.893 33.228 43.9769 33.4188 44.1512 33.6112C44.2815 33.7527 44.6119 33.9962 45.1406 34.3418L49.5809 37.2594L49.551 37.3797L44.0626 37.7799C43.3995 37.828 43.0075 37.872 42.8831 37.9143C42.7599 37.9565 42.6595 38.068 42.5833 38.2517L42.4102 38.2083L43.0028 35.8587L43.1771 35.9027L43.1566 35.9825C43.1032 36.1938 43.1008 36.3475 43.1507 36.442C43.183 36.5095 43.2464 36.5547 43.3367 36.5775C43.3936 36.5922 43.4617 36.5993 43.5439 36.5993C43.6248 36.5993 43.8472 36.5858 44.2105 36.5605L47.6457 36.3176L45.0666 34.6346C44.7545 34.4328 44.5444 34.3043 44.4341 34.2491C44.3261 34.1933 44.231 34.1546 44.1495 34.1341C44.0544 34.11 43.967 34.1083 43.8848 34.1294C43.8038 34.1499 43.7346 34.1922 43.6782 34.2573C43.5996 34.3483 43.5374 34.4774 43.494 34.6493L43.3209 34.6047L43.7264 32.9968Z" fill="white"/>
<path d="M44.8473 31.1942L47.3365 32.1719L47.3741 32.0774C47.4914 31.7787 47.4539 31.5146 47.2632 31.2864C47.0719 31.0563 46.7462 30.8286 46.2855 30.6062L46.3378 30.473L49.5394 31.73L49.4877 31.8632C49.128 31.7529 48.82 31.7001 48.5623 31.7012C48.3047 31.7024 48.1146 31.7482 47.9926 31.8356C47.8687 31.9236 47.7637 32.0797 47.6757 32.3033L49.398 32.9811C49.7354 33.1125 49.9449 33.1829 50.0294 33.19C50.1127 33.1976 50.1902 33.1806 50.2629 33.1395C50.3345 33.0984 50.3961 33.0098 50.4478 32.8766L50.5593 32.5949C50.7312 32.156 50.7371 31.7517 50.5774 31.3832C50.4167 31.0153 50.0886 30.6655 49.5916 30.3381L49.6427 30.2096L51.5028 31.1848L49.9073 35.2502L49.7407 35.1851L49.8023 35.029C49.8551 34.8923 49.8662 34.7702 49.8357 34.6623C49.8175 34.5848 49.7635 34.5109 49.6749 34.4387C49.6121 34.3841 49.4285 34.2973 49.121 34.177L45.0978 32.5973C44.822 32.4887 44.6489 32.4283 44.5809 32.4148C44.4676 32.3966 44.3684 32.4077 44.2875 32.4477C44.1689 32.5028 44.0791 32.6061 44.0199 32.7581L43.9583 32.9142L43.791 32.8502L45.3373 28.9115L47.1458 29.6216L47.0936 29.7536C46.6253 29.6468 46.2709 29.6169 46.0314 29.6627C45.7909 29.709 45.5825 29.8246 45.4047 30.0112C45.3009 30.1198 45.1776 30.3522 45.0386 30.7078L44.8473 31.1942Z" fill="white"/>
<path d="M46.8319 26.7147L49.3575 28.0948L49.459 27.9076C49.6251 27.6048 49.7131 27.3584 49.7231 27.1683C49.7325 26.9781 49.6673 26.7886 49.5259 26.5996C49.3845 26.4113 49.1615 26.2335 48.8581 26.0674C48.4192 25.8268 48.0513 25.7288 47.7549 25.7722C47.4586 25.8157 47.2151 26.0128 47.0232 26.3637L46.8319 26.7147ZM49.6603 28.2591L51.2764 29.1411C51.5885 29.3119 51.7928 29.4052 51.8896 29.4193C51.9864 29.4339 52.0779 29.4169 52.1677 29.37C52.2557 29.3213 52.3555 29.1957 52.4664 28.9938L52.6237 29.0795L51.3837 31.3499L51.2265 31.263C51.338 31.0588 51.3896 30.9062 51.3802 30.8059C51.3691 30.7055 51.3333 30.6193 51.2699 30.5459C51.2071 30.4732 51.0199 30.3523 50.7077 30.1815L46.9651 28.1383C46.6541 27.9681 46.4499 27.8748 46.353 27.8601C46.255 27.8454 46.1629 27.8625 46.0749 27.91C45.9851 27.9581 45.8859 28.0825 45.7745 28.2861L45.6172 28.1999L46.7439 26.139C47.0361 25.6032 47.299 25.2365 47.5314 25.0405C47.7631 24.8445 48.0513 24.7395 48.3975 24.7236C48.7419 24.7078 49.0893 24.7964 49.4373 24.9859C49.8633 25.2183 50.1503 25.5293 50.2987 25.9148C50.3932 26.1619 50.4102 26.4447 50.3498 26.7628L52.9517 26.9723C53.2809 26.9699 53.491 26.9576 53.5854 26.9324C53.7233 26.8913 53.7052 26.8637 53.7779 26.7499L53.8624 27.143L53.295 28.1834L49.8187 27.9681L49.6603 28.2591Z" fill="white"/>
<path d="M50.0972 20.5978L51.9116 21.8266L51.8236 21.9515C51.3324 21.6939 50.8689 21.5836 50.4335 21.6212C49.998 21.6599 49.6859 21.8125 49.4957 22.0806C49.3508 22.2878 49.3074 22.5031 49.3655 22.7244C49.4247 22.9468 49.5468 23.1234 49.7346 23.2566C49.8543 23.3399 49.974 23.3933 50.0972 23.4162C50.2627 23.4444 50.4516 23.4368 50.6647 23.3922C50.8196 23.3581 51.1288 23.2472 51.5936 23.0571C52.2432 22.7919 52.7654 22.671 53.1586 22.6968C53.5506 22.7244 53.9232 22.8623 54.2776 23.1117C54.7265 23.4274 55.017 23.8346 55.1514 24.3311C55.2852 24.8293 55.2054 25.2852 54.9131 25.6989C54.8222 25.8286 54.7183 25.9395 54.6021 26.0316C54.486 26.1226 54.3187 26.2217 54.101 26.3303C53.979 26.3907 53.8968 26.4512 53.8522 26.5157C53.8158 26.5674 53.8023 26.6425 53.8135 26.7381C53.8252 26.835 53.8716 26.9388 53.9537 27.0515L53.8751 27.1636L51.8465 25.7353L51.9263 25.6214C52.56 25.9348 53.1163 26.0692 53.5958 26.0258C54.0746 25.9817 54.4179 25.8139 54.6262 25.5188C54.7858 25.2911 54.8328 25.0528 54.7676 24.8052C54.7013 24.5558 54.5622 24.3563 54.3481 24.2049C54.2207 24.1169 54.0793 24.0553 53.9244 24.0236C53.7695 23.9919 53.6005 23.9907 53.4203 24.0212C53.239 24.0511 52.9679 24.1398 52.607 24.287C52.1018 24.493 51.7074 24.6186 51.4216 24.6649C51.1365 24.7095 50.8595 24.7037 50.5884 24.6444C50.3173 24.5863 50.0561 24.4678 49.8056 24.2912C49.3772 23.9895 49.0991 23.6122 48.9688 23.1586C48.8368 22.705 48.9019 22.2937 49.1607 21.9257C49.2551 21.7919 49.3678 21.6769 49.4998 21.5801C49.5978 21.5073 49.7393 21.4322 49.9206 21.3565C50.1031 21.2791 50.2146 21.2133 50.2533 21.1594C50.2909 21.106 50.2991 21.0502 50.2774 20.9898C50.2568 20.9293 50.1747 20.829 50.0333 20.6899L50.0972 20.5978Z" fill="white"/>
<path d="M57.1319 22.3419L57.2698 22.4569L55.5821 24.489L55.443 24.3752L55.551 24.2461C55.6449 24.1334 55.6936 24.0207 55.6983 23.9087C55.7059 23.83 55.6778 23.7426 55.615 23.6458C55.5727 23.5748 55.4248 23.4345 55.1708 23.2239L51.8471 20.4635C51.5877 20.2493 51.4175 20.1243 51.3354 20.0921C51.2538 20.0592 51.1623 20.0557 51.0596 20.0786C50.9575 20.1026 50.8624 20.1695 50.7726 20.2781L50.6652 20.4066L50.5273 20.2928L52.2156 18.2595L52.3523 18.3739L52.2461 18.5036C52.1516 18.6162 52.1023 18.7283 52.0971 18.8398C52.0912 18.9184 52.1176 19.0082 52.1792 19.1074C52.2209 19.1772 52.3693 19.3175 52.6222 19.5281L55.9477 22.2885C56.2065 22.5038 56.3772 22.6277 56.4594 22.6588C56.5427 22.6904 56.6348 22.694 56.7364 22.6699C56.8379 22.647 56.9347 22.5801 57.0257 22.4716L57.1319 22.3419Z" fill="white"/>
<path d="M55.5139 14.8725L56.7744 16.1271L56.6787 16.2227C56.3331 15.9892 56.062 15.8436 55.866 15.7856C55.67 15.7275 55.4752 15.7216 55.2804 15.7662C55.173 15.792 55.0363 15.8888 54.869 16.0555L54.6044 16.3231L58.1956 19.8973C58.4339 20.1356 58.5923 20.2735 58.6721 20.3122C58.7519 20.3509 58.8429 20.3632 58.9468 20.3486C59.05 20.3339 59.1527 20.2758 59.2542 20.1731L59.3728 20.0546L59.4995 20.1819L57.6323 22.0568L57.505 21.9294L57.6235 21.8109C57.7274 21.707 57.7866 21.6008 57.8013 21.4881C57.8148 21.4107 57.7966 21.3197 57.7444 21.2159C57.708 21.1419 57.5742 20.9888 57.3407 20.7564L53.7488 17.1804L53.4912 17.4392C53.2506 17.6815 53.1432 17.9221 53.1673 18.1639C53.1996 18.5013 53.368 18.861 53.6714 19.2442L53.571 19.3445L52.3105 18.0888L55.5139 14.8725Z" fill="white"/>
<path d="M59.9338 11.371L60.0441 11.5124C59.9303 11.6374 59.8687 11.7665 59.8575 11.8985C59.8429 12.081 59.9156 12.4935 60.0752 13.1349L60.6744 15.6846L61.6514 16.938C61.8597 17.205 62 17.3623 62.0727 17.411C62.1449 17.4591 62.2323 17.4832 62.3338 17.4832C62.4365 17.4832 62.5404 17.4421 62.6472 17.3599L62.8696 17.1857L62.9811 17.3259L60.743 19.0717L60.6327 18.9302L60.8422 18.7671C60.9595 18.675 61.0323 18.5758 61.0587 18.4696C61.0816 18.3933 61.0746 18.3012 61.0358 18.1909C61.0106 18.1134 60.8956 17.9444 60.6937 17.6856L59.8828 16.6452L57.2134 15.1571C56.6858 14.8642 56.3543 14.7087 56.2164 14.6905C56.0797 14.6724 55.947 14.7123 55.8174 14.8079L55.707 14.6671L57.6171 13.1772L57.7274 13.3186L57.6417 13.3849C57.5267 13.4747 57.4639 13.5604 57.4504 13.639C57.4381 13.7176 57.4516 13.7816 57.4892 13.8303C57.5602 13.9224 57.8184 14.0914 58.2632 14.3385L60.3211 15.4921L59.82 13.3708C59.7003 12.8491 59.5917 12.5264 59.4949 12.4014C59.4403 12.3328 59.3699 12.2952 59.2842 12.2893C59.1668 12.2782 59.0155 12.3351 58.8271 12.4607L58.7168 12.3204L59.9338 11.371Z" fill="white"/>
<path d="M63.337 9.81062L64.6373 12.1755L64.7641 12.1039C64.9601 11.9977 65.1009 11.8709 65.1819 11.7254C65.264 11.5816 65.2981 11.3956 65.2846 11.1667C65.2711 10.9379 65.1924 10.6621 65.0487 10.3393L65.1637 10.2765L66.7528 13.1672L66.6383 13.2317C66.2968 12.7077 65.9864 12.409 65.7065 12.3362C65.4272 12.2641 65.1707 12.2905 64.9372 12.4202L64.8104 12.4888L65.7792 14.2516C65.9412 14.545 66.055 14.7228 66.1202 14.7826C66.1859 14.8431 66.2704 14.8789 66.3743 14.8947C66.4775 14.9094 66.5908 14.883 66.7146 14.8149L66.8619 14.7339L66.9476 14.8912L64.6326 16.1652L64.5464 16.0079L64.6942 15.9269C64.8222 15.8565 64.9084 15.7697 64.9542 15.6664C64.9894 15.5965 64.9953 15.5044 64.9736 15.3906C64.9601 15.3096 64.8744 15.1259 64.7148 14.8366L62.6316 11.0494C62.4697 10.7554 62.3558 10.5776 62.2918 10.5171C62.2279 10.4579 62.144 10.4191 62.0401 10.4045C61.9374 10.3898 61.8236 10.4156 61.6992 10.4843L61.5525 10.5653L61.4668 10.408L65.2024 8.35299L66.1108 10.0043L65.9764 10.0782C65.7323 9.70793 65.4976 9.46206 65.2687 9.3447C65.0416 9.22616 64.7875 9.19506 64.5076 9.24905C64.3545 9.27839 64.1004 9.38988 63.7483 9.5847L63.337 9.81062Z" fill="white"/>
<path d="M68.1694 7.34401C67.7398 7.51478 67.5257 7.92965 67.528 8.58863C67.5309 9.12967 67.7058 9.83853 68.0532 10.7152C68.4669 11.7568 68.9123 12.4715 69.3911 12.8588C69.7262 13.1299 70.0701 13.1939 70.4227 13.0548C70.6616 12.9604 70.8306 12.8066 70.9297 12.593C71.0582 12.3207 71.0946 11.9505 71.0401 11.4834C70.9867 11.018 70.8247 10.4441 70.5559 9.76577C70.2355 8.95774 69.9392 8.3768 69.6646 8.02119C69.39 7.66559 69.13 7.44201 68.8853 7.34636C68.6424 7.25306 68.4029 7.25189 68.1694 7.34401ZM68.0145 7.07174C68.7474 6.73902 69.4686 6.78303 70.1751 7.20142C70.8828 7.61981 71.4162 8.28173 71.7741 9.18894C72.0816 9.96411 72.1773 10.7152 72.0623 11.4411C71.9085 12.4052 71.4115 13.0537 70.5671 13.3887C69.7227 13.7226 68.9205 13.6099 68.1647 13.0478C67.5656 12.6036 67.1073 11.978 66.7869 11.17C66.4272 10.2628 66.3655 9.41251 66.6003 8.62032C66.835 7.82696 67.3068 7.31115 68.0145 7.07174Z" fill="white"/>
<path d="M72.8612 5.94114L73.5437 8.73786L73.7491 8.68681C74.0853 8.60583 74.3259 8.50432 74.4738 8.38343C74.6211 8.26255 74.7167 8.08592 74.7601 7.85472C74.8053 7.62234 74.786 7.33833 74.705 7.00209C74.5865 6.5168 74.411 6.17821 74.1786 5.98926C73.9474 5.79972 73.6364 5.75219 73.2485 5.84666L72.8612 5.94114ZM73.6247 9.07176L74.0613 10.8598C74.1458 11.2054 74.215 11.4184 74.2696 11.5006C74.3236 11.5815 74.3987 11.6385 74.4943 11.6725C74.5888 11.7065 74.7484 11.6954 74.9732 11.6396L75.0154 11.8139L72.5033 12.4271L72.4599 12.2534C72.687 12.1989 72.8348 12.1331 72.9023 12.0586C72.9686 11.9847 73.0085 11.899 73.0197 11.8033C73.0308 11.7077 72.9944 11.4865 72.9094 11.1414L71.8995 6.99974C71.815 6.65352 71.7457 6.44051 71.6917 6.35953C71.6372 6.27738 71.562 6.22046 71.4664 6.18643C71.3719 6.15415 71.2111 6.16471 70.9876 6.21811L70.9453 6.04383L73.2268 5.48754C73.8195 5.34377 74.2678 5.29037 74.5694 5.33027C74.8705 5.369 75.1427 5.5116 75.3857 5.75747C75.6304 6.00158 75.7994 6.31728 75.8939 6.70223C76.0089 7.17402 75.9725 7.59476 75.7876 7.96504C75.6679 8.20094 75.4708 8.40397 75.195 8.57356L76.9026 10.4461C77.1256 10.6878 77.2776 10.8357 77.3603 10.8885C77.4823 10.9613 77.6103 10.9865 77.7435 10.9636L77.7857 11.1379L76.2389 11.5152L73.9474 8.99313L73.6247 9.07176Z" fill="white"/>
<path d="M81.558 4.10481L81.7687 6.28597L81.6161 6.29654C81.5011 5.75491 81.2905 5.32772 80.9836 5.01671C80.6761 4.70629 80.3592 4.56193 80.0329 4.58775C79.78 4.60829 79.5864 4.71098 79.4532 4.897C79.3188 5.08478 79.2607 5.29251 79.2789 5.52136C79.29 5.6663 79.3264 5.79364 79.388 5.90103C79.4702 6.04773 79.5969 6.18798 79.7677 6.32353C79.8921 6.42153 80.1755 6.58818 80.618 6.82642C81.2365 7.1568 81.6619 7.48247 81.8931 7.8017C82.1231 8.12092 82.2534 8.49589 82.2874 8.92778C82.3297 9.47469 82.2029 9.95821 81.9054 10.3795C81.6079 10.7991 81.206 11.0291 80.7001 11.0679C80.5417 11.0796 80.3909 11.0702 80.2465 11.0397C80.1016 11.0098 79.9191 10.9429 79.6961 10.8437C79.5717 10.7897 79.4714 10.7639 79.3951 10.7704C79.3311 10.7762 79.2648 10.8126 79.1979 10.8836C79.1316 10.9529 79.0805 11.0555 79.0465 11.1911L78.9104 11.2017L78.7167 8.72827L78.8546 8.71712C79.0177 9.40427 79.2683 9.91949 79.6081 10.261C79.9467 10.6019 80.2964 10.758 80.6555 10.7316C80.9325 10.7093 81.1467 10.5937 81.2969 10.3842C81.4454 10.1759 81.5099 9.94002 81.4906 9.67889C81.4782 9.52398 81.4348 9.37786 81.3609 9.23761C81.2858 9.09737 81.1795 8.96768 81.0405 8.8468C80.9014 8.72709 80.6602 8.57452 80.3169 8.39085C79.8358 8.13324 79.4872 7.90908 79.2707 7.71837C79.0541 7.52824 78.8822 7.30937 78.7543 7.06349C78.6269 6.81821 78.5506 6.54123 78.5278 6.23492C78.4867 5.71384 78.5994 5.25906 78.8652 4.86825C79.1328 4.47861 79.4895 4.26559 79.9384 4.23039C80.1016 4.21748 80.2612 4.23156 80.4196 4.27029C80.5382 4.3008 80.686 4.36124 80.8615 4.45337C81.037 4.54491 81.1578 4.58775 81.2253 4.58247C81.2893 4.57778 81.338 4.54785 81.372 4.49328C81.4043 4.4387 81.4295 4.31195 81.4465 4.11302L81.558 4.10481Z" fill="white"/>
<path d="M87.1955 4.19989L87.1157 6.47553L86.9696 6.47024C86.8821 5.87287 86.6932 5.41106 86.408 5.08303C86.1199 4.75618 85.7889 4.58718 85.411 4.57368C85.0953 4.56253 84.8013 4.67051 84.5308 4.89643C84.2597 5.12293 84.0549 5.42397 83.9211 5.80011C83.7468 6.28305 83.65 6.82233 83.6283 7.42029C83.6077 8.00651 83.6465 8.54402 83.7433 9.03107C83.8413 9.51754 84.0068 9.88899 84.2415 10.1442C84.4762 10.3995 84.7872 10.5339 85.1739 10.548C85.492 10.5591 85.786 10.4793 86.0571 10.3074C86.3282 10.1354 86.6175 9.83441 86.9267 9.40252L86.9062 9.96879C86.6099 10.3438 86.3053 10.6113 85.9919 10.7733C85.6798 10.9341 85.3183 11.008 84.9081 10.9945C84.3694 10.9752 83.8953 10.8179 83.488 10.5227C83.079 10.2264 82.7704 9.81153 82.5615 9.27812C82.3532 8.74354 82.2587 8.17961 82.2804 7.58577C82.3021 6.95906 82.4488 6.36873 82.7211 5.81595C82.9934 5.26436 83.349 4.84009 83.7879 4.5461C84.2268 4.25094 84.6869 4.11187 85.1692 4.1283C85.5248 4.14062 85.8963 4.25446 86.2836 4.46864C86.5083 4.59305 86.6509 4.65584 86.7125 4.65818C86.7929 4.66053 86.8628 4.62591 86.9244 4.55197C86.9848 4.47803 87.0271 4.35832 87.0505 4.19519L87.1955 4.19989Z" fill="white"/>
<path d="M89.309 11.0243L89.2849 11.2021L86.666 10.8559L86.6889 10.6781L86.8556 10.7004C87.0011 10.7198 87.122 10.7016 87.22 10.6459C87.2898 10.6095 87.3491 10.5391 87.3978 10.4352C87.4353 10.3613 87.4752 10.1617 87.5186 9.83547L88.0837 5.5506C88.1272 5.21671 88.1418 5.00722 88.126 4.92037C88.109 4.83353 88.0644 4.75372 87.9904 4.67978C87.9153 4.60702 87.8079 4.56125 87.6689 4.54188L87.5016 4.52134L87.5245 4.34237L90.1446 4.688L90.1217 4.8658L89.9551 4.84409C89.8095 4.82472 89.6887 4.84291 89.5907 4.89866C89.5208 4.93504 89.4604 5.00487 89.4093 5.10933C89.3718 5.18268 89.3319 5.38219 89.2885 5.70904L88.7234 9.99391C88.6788 10.3266 88.6664 10.5367 88.6835 10.6241C88.7017 10.711 88.7462 10.792 88.8214 10.8647C88.8953 10.9387 89.0027 10.9844 89.1423 11.0026L89.309 11.0243Z" fill="white"/>
<path d="M92.0198 5.52882L91.4307 8.13835L91.5287 8.16007C91.842 8.2299 92.0961 8.15361 92.2956 7.93004C92.4928 7.70764 92.6683 7.35086 92.8197 6.86205L92.9576 6.89315L92.1988 10.2491L92.0609 10.2174C92.1155 9.84479 92.1202 9.53261 92.0803 9.27852C92.0392 9.02385 91.9664 8.84194 91.8614 8.73455C91.7564 8.6254 91.5856 8.5456 91.3509 8.49279L90.9419 10.2972C90.8633 10.6505 90.8257 10.8694 90.831 10.9527C90.8357 11.0366 90.8644 11.1117 90.9155 11.1757C90.9677 11.2408 91.0628 11.2883 91.2048 11.3206L91.4988 11.3875C91.9594 11.4914 92.3596 11.4356 92.7 11.2214C93.0409 11.0061 93.3349 10.6288 93.5837 10.0907L93.7181 10.1194L93.0362 12.1069L88.7754 11.144L88.8153 10.9697L88.979 11.0061C89.1216 11.0389 89.2448 11.0313 89.3464 10.9855C89.4191 10.9556 89.4854 10.8911 89.5435 10.7907C89.5869 10.7209 89.645 10.5261 89.7178 10.2039L90.6708 5.98829C90.7353 5.69958 90.7705 5.51943 90.7729 5.45136C90.7741 5.33517 90.7482 5.23952 90.6966 5.165C90.6238 5.05585 90.5076 4.98309 90.348 4.94847L90.1837 4.91091L90.2236 4.73546L94.3495 5.66789L93.9217 7.56328L93.7838 7.53218C93.8172 7.05276 93.7944 6.69715 93.7122 6.46771C93.6312 6.23768 93.4845 6.04873 93.2733 5.90144C93.1506 5.8146 92.9018 5.72833 92.5292 5.64383L92.0198 5.52882Z" fill="white"/>
<path d="M96.8699 6.51999L97.8205 11.2015L98.7858 8.54624C98.9202 8.17597 98.9712 7.91132 98.936 7.74994C98.8873 7.534 98.7312 7.38025 98.4654 7.29047L98.527 7.12265L100.096 7.69244L100.035 7.86144C99.8215 7.82153 99.6701 7.81567 99.5833 7.84325C99.4947 7.87259 99.409 7.9389 99.328 8.04393C99.2459 8.15073 99.1514 8.34907 99.0446 8.64072L97.1756 13.7817L97.0577 13.7383L95.7133 7.42955L94.2874 11.3553C94.1577 11.7109 94.1324 11.9732 94.2134 12.1428C94.2932 12.313 94.4129 12.4268 94.5737 12.4861L94.6852 12.526L94.6248 12.6944L92.9395 12.0818L93.0011 11.9128C93.264 12.0061 93.4705 12.002 93.6231 11.9028C93.7768 11.8036 93.9124 11.5894 94.0309 11.262L95.6153 6.90494L95.573 6.70249C95.5331 6.50298 95.4839 6.36273 95.4258 6.28292C95.3665 6.20429 95.2656 6.13388 95.1241 6.07578L95.1846 5.90795L96.8699 6.51999Z" fill="white"/>
<path d="M104.713 9.88561L103.659 11.9048L103.532 11.8379C103.709 11.2599 103.74 10.7629 103.621 10.3427C103.504 9.92434 103.277 9.628 102.942 9.45372C102.663 9.3076 102.352 9.27826 102.009 9.3657C101.666 9.45255 101.353 9.63622 101.069 9.91847C100.704 10.2788 100.384 10.723 100.107 11.2523C99.8347 11.7751 99.6387 12.2757 99.5166 12.7574C99.3946 13.2375 99.3834 13.6429 99.4849 13.9757C99.587 14.3072 99.8094 14.5625 100.153 14.7426C100.435 14.8887 100.735 14.9445 101.054 14.9057C101.372 14.8682 101.764 14.7209 102.228 14.4645L101.966 14.9662C101.537 15.1769 101.146 15.2866 100.794 15.2977C100.442 15.3083 100.085 15.2203 99.7208 15.0302C99.2432 14.7813 98.884 14.4351 98.6423 13.9927C98.4011 13.5496 98.3019 13.0415 98.343 12.4693C98.3858 11.8984 98.5443 11.3479 98.8189 10.821C99.1088 10.2653 99.4961 9.79759 99.979 9.41499C100.463 9.03415 100.966 8.80412 101.489 8.72784C102.013 8.65038 102.489 8.72549 102.917 8.94789C103.232 9.11161 103.518 9.37509 103.774 9.73421C103.925 9.9437 104.026 10.0622 104.082 10.091C104.151 10.1274 104.23 10.1262 104.317 10.0863C104.405 10.0452 104.493 9.9572 104.585 9.8193L104.713 9.88561Z" fill="white"/>
<path d="M106.425 11.6717L104.901 13.8699L104.984 13.928C105.246 14.1105 105.513 14.1346 105.78 14.0014C106.047 13.8687 106.343 13.6035 106.667 13.208L106.782 13.2878L104.822 16.115L104.707 16.0341C104.894 15.7096 105.018 15.4214 105.076 15.1715C105.134 14.9197 105.134 14.7237 105.076 14.5847C105.019 14.4444 104.891 14.3065 104.693 14.1686L103.639 15.689C103.433 15.9865 103.317 16.1755 103.291 16.2553C103.262 16.3351 103.261 16.4149 103.286 16.4935C103.309 16.5733 103.38 16.6543 103.498 16.7365L103.747 16.9084C104.135 17.1772 104.527 17.2763 104.923 17.2047C105.318 17.1332 105.733 16.8926 106.166 16.4865L106.279 16.5651L104.903 18.1519L101.312 15.6626L101.416 15.5159L101.553 15.6116C101.673 15.6949 101.79 15.7336 101.902 15.7289C101.98 15.7289 102.065 15.6937 102.157 15.6239C102.224 15.5752 102.351 15.4156 102.538 15.1445L105.001 11.5931C105.169 11.349 105.268 11.1953 105.298 11.1325C105.341 11.0245 105.353 10.9265 105.334 10.8385C105.307 10.71 105.227 10.6002 105.092 10.5069L104.954 10.4113L105.057 10.2634L108.533 12.6734L107.426 14.2701L107.309 14.1903C107.521 13.7584 107.632 13.421 107.642 13.1763C107.652 12.9322 107.587 12.7022 107.447 12.4868C107.366 12.3601 107.168 12.187 106.853 11.9693L106.425 11.6717Z" fill="white"/>
<path d="M111.005 17.9869C111.279 18.0838 111.498 18.1125 111.662 18.075C111.827 18.038 111.983 17.947 112.127 17.8044C112.384 17.5504 112.549 17.2828 112.623 17.0046C112.672 16.8198 112.647 16.6766 112.546 16.5751C112.464 16.4929 112.351 16.4642 112.208 16.4882C112.064 16.5135 111.92 16.598 111.776 16.7412C111.663 16.8521 111.557 16.9853 111.457 17.1414C111.356 17.2963 111.206 17.5791 111.005 17.9869ZM109.797 17.9242C109.579 17.8602 109.397 17.842 109.253 17.8708C109.042 17.9142 108.858 18.0145 108.7 18.1718C108.484 18.386 108.316 18.6465 108.199 18.9534C108.082 19.2621 108.031 19.5414 108.048 19.7931C108.065 20.0449 108.142 20.2391 108.276 20.3747C108.342 20.4416 108.436 20.4985 108.557 20.5454C108.678 20.5912 108.825 20.6264 108.998 20.6505C109.143 19.6635 109.411 18.7551 109.797 17.9242ZM111.843 19.2462L112.934 20.3471L112.799 20.4803C112.654 20.3799 112.51 20.3301 112.367 20.3301C112.225 20.3312 111.966 20.4064 111.591 20.5548C111.215 20.7027 110.762 20.8359 110.234 20.9544C110.201 21.3423 110.198 21.6351 110.229 21.8299C110.25 21.9667 110.298 22.0717 110.374 22.148C110.502 22.2789 110.731 22.2871 111.059 22.1726L111.09 22.3563C110.577 22.5764 110.162 22.6832 109.843 22.6732C109.602 22.6638 109.402 22.5787 109.241 22.4179C109.106 22.28 109.014 22.1122 108.969 21.9109C108.922 21.7102 108.916 21.4162 108.952 21.0295C108.539 20.999 108.194 20.9298 107.916 20.8201C107.638 20.7109 107.395 20.5525 107.186 20.3424C106.854 20.0061 106.709 19.6235 106.749 19.1917C106.79 18.7586 106.97 18.386 107.288 18.0691C107.633 17.7282 108.026 17.5263 108.467 17.4629C108.909 17.399 109.402 17.4559 109.944 17.6325C110.047 17.4377 110.16 17.2587 110.278 17.0956C110.398 16.9307 110.525 16.7834 110.658 16.6514C111.026 16.2887 111.43 16.0839 111.87 16.0417C112.312 15.9971 112.685 16.1303 112.992 16.4395C113.238 16.6878 113.352 16.9659 113.335 17.2722C113.317 17.5779 113.201 17.8367 112.986 18.0509C112.725 18.3085 112.429 18.4529 112.097 18.4875C111.764 18.5204 111.361 18.4529 110.888 18.2809C110.628 18.9329 110.426 19.7133 110.278 20.6205C110.914 20.5055 111.368 20.313 111.639 20.0461C111.736 19.9504 111.792 19.8424 111.81 19.7251C111.826 19.6065 111.792 19.4903 111.708 19.3783L111.843 19.2462Z" fill="white"/>
<path d="M118.398 23.3132L116.957 24.3548L116.878 24.2456C117.163 23.9411 117.351 23.6964 117.439 23.5139C117.528 23.3302 117.567 23.1378 117.553 22.9394C117.545 22.8279 117.472 22.6783 117.333 22.4858L117.113 22.1807L113.005 25.1505C112.734 25.3477 112.572 25.482 112.521 25.5548C112.469 25.6276 112.443 25.7156 112.44 25.8195C112.437 25.9251 112.478 26.0348 112.564 26.151L112.661 26.2866L112.516 26.3916L110.967 24.2468L111.112 24.143L111.21 24.2785C111.295 24.397 111.391 24.4733 111.499 24.5062C111.574 24.5314 111.667 24.5279 111.777 24.4939C111.857 24.471 112.029 24.3618 112.296 24.1699L116.404 21.2001L116.189 20.9038C115.99 20.628 115.769 20.4824 115.527 20.4666C115.188 20.4449 114.806 20.5529 114.38 20.7911L114.297 20.6761L115.738 19.6345L118.398 23.3132Z" fill="white"/>
<path d="M119.179 25.4476L116.84 26.7444L116.89 26.8324C117.045 27.1124 117.272 27.2526 117.57 27.2526C117.869 27.2514 118.252 27.1435 118.718 26.9316L118.785 27.0554L115.776 28.7231L115.709 28.5999C116.022 28.3922 116.259 28.1886 116.423 27.989C116.584 27.7895 116.672 27.6141 116.682 27.4627C116.692 27.313 116.64 27.1317 116.523 26.9211L114.904 27.8183C114.588 27.9937 114.4 28.1111 114.341 28.1715C114.281 28.2308 114.245 28.3012 114.231 28.3834C114.217 28.4644 114.245 28.5688 114.315 28.6956L114.461 28.959C114.691 29.3716 114.998 29.6333 115.384 29.7442C115.772 29.8557 116.249 29.824 116.818 29.6509L116.884 29.7724L114.948 30.5851L112.83 26.765L112.987 26.6793L113.068 26.8254C113.138 26.9533 113.227 27.0396 113.328 27.0854C113.4 27.1206 113.491 27.1264 113.604 27.1036C113.685 27.0889 113.87 27.0032 114.158 26.8424L117.938 24.7469C118.197 24.6032 118.354 24.5087 118.408 24.4653C118.495 24.389 118.549 24.3057 118.57 24.2176C118.603 24.0903 118.58 23.9559 118.499 23.8122L118.419 23.666L118.576 23.5786L120.628 27.279L118.928 28.2202L118.859 28.097C119.24 27.8042 119.489 27.5501 119.607 27.3359C119.724 27.1206 119.767 26.8858 119.736 26.6306C119.719 26.4804 119.618 26.2386 119.432 25.9035L119.179 25.4476Z" fill="white"/>
<path d="M122.982 32.502L120.868 33.3476L120.813 33.212C121.325 32.8905 121.672 32.5307 121.855 32.1382C122.038 31.7433 122.06 31.37 121.92 31.0203C121.803 30.7263 121.586 30.501 121.269 30.3437C120.952 30.1865 120.594 30.1225 120.195 30.1518C119.684 30.1865 119.151 30.3161 118.597 30.5374C118.05 30.7562 117.575 31.008 117.169 31.2926C116.762 31.5778 116.49 31.88 116.351 32.1986C116.211 32.5155 116.214 32.8553 116.358 33.2144C116.477 33.5095 116.667 33.7466 116.934 33.9256C117.2 34.1034 117.593 34.2477 118.113 34.3551L117.587 34.5658C117.125 34.4449 116.756 34.2742 116.483 34.0541C116.208 33.8329 115.995 33.5324 115.842 33.1516C115.643 32.651 115.596 32.1534 115.701 31.6611C115.807 31.1676 116.062 30.7175 116.466 30.3114C116.871 29.9048 117.349 29.5914 117.9 29.3714C118.482 29.1378 119.081 29.0351 119.696 29.0604C120.311 29.0862 120.843 29.2405 121.291 29.5239C121.737 29.8056 122.051 30.1724 122.23 30.6183C122.362 30.9487 122.408 31.3348 122.368 31.7761C122.346 32.0314 122.346 32.1875 122.368 32.2456C122.398 32.3195 122.458 32.3688 122.551 32.3958C122.642 32.421 122.768 32.411 122.927 32.3664L122.982 32.502Z" fill="white"/>
<path d="M120.194 35.7741L118.218 36.2617C117.892 36.3427 117.692 36.4055 117.617 36.4542C117.543 36.5023 117.485 36.5739 117.444 36.6707C117.401 36.7658 117.398 36.8831 117.433 37.0199L117.473 37.1836L117.299 37.2258L116.666 34.6609L116.839 34.6175L116.88 34.7812C116.915 34.9226 116.976 35.0288 117.063 35.0992C117.122 35.1509 117.209 35.1814 117.324 35.1884C117.406 35.1961 117.607 35.1609 117.926 35.0822L122.123 34.0453C122.45 33.9655 122.65 33.9016 122.725 33.8558C122.8 33.8083 122.858 33.7373 122.899 33.6416C122.94 33.546 122.944 33.4286 122.91 33.2919L122.869 33.1287L123.043 33.0847L123.677 35.6508L123.503 35.6943L123.463 35.5311C123.428 35.3891 123.367 35.2817 123.279 35.2113C123.22 35.1597 123.133 35.1292 123.016 35.1186C122.935 35.111 122.735 35.1462 122.414 35.226L120.608 35.6726L121.037 37.4048L122.842 36.9583C123.168 36.8784 123.37 36.8145 123.445 36.7687C123.519 36.7212 123.577 36.6496 123.618 36.5534C123.659 36.4554 123.663 36.338 123.627 36.2013L123.589 36.0417L123.763 35.9988L124.395 38.5597L124.221 38.6037L124.183 38.4452C124.147 38.2985 124.086 38.1935 123.999 38.1242C123.939 38.0726 123.851 38.0421 123.736 38.0327C123.654 38.0239 123.454 38.0603 123.134 38.1389L118.938 39.1746C118.611 39.2556 118.41 39.3184 118.335 39.3653C118.262 39.4117 118.203 39.4839 118.162 39.5807C118.121 39.6787 118.118 39.7961 118.152 39.9328L118.191 40.0924L118.017 40.1346L117.384 37.5726L117.559 37.5304L117.598 37.6888C117.634 37.8344 117.695 37.9406 117.781 38.0098C117.84 38.0615 117.928 38.092 118.044 38.1014C118.126 38.1102 118.327 38.0738 118.646 37.9951L120.623 37.5075L120.194 35.7741Z" fill="white"/>
<path d="M124.611 40.5809L120.819 43.485L123.628 43.1916C124.02 43.15 124.281 43.079 124.409 42.9775C124.584 42.8407 124.652 42.6312 124.617 42.3531L124.795 42.3349L124.969 43.9944L124.79 44.0138C124.733 43.8049 124.672 43.667 124.609 43.6001C124.545 43.5326 124.447 43.485 124.316 43.4575C124.184 43.4311 123.965 43.4334 123.657 43.4645L118.216 44.0343L118.202 43.9087L123.288 39.9396L119.134 40.3756C118.758 40.4155 118.511 40.507 118.392 40.6537C118.275 40.7998 118.226 40.9583 118.242 41.1278L118.256 41.2464L118.077 41.2657L117.891 39.4824L118.068 39.4631C118.101 39.74 118.194 39.9255 118.35 40.0182C118.507 40.1115 118.758 40.1408 119.105 40.1045L123.718 39.6215L123.88 39.4959C124.042 39.3715 124.145 39.2659 124.192 39.1791C124.238 39.0916 124.257 38.9696 124.246 38.817L124.425 38.7976L124.611 40.5809Z" fill="white"/>
<path d="M124.69 47.1237C124.705 46.663 124.409 46.301 123.802 46.041C123.305 45.8304 122.585 45.7095 121.642 45.6807C120.522 45.6455 119.69 45.7711 119.144 46.058C118.763 46.2576 118.567 46.5469 118.555 46.9277C118.546 47.183 118.62 47.3995 118.778 47.5761C118.976 47.8009 119.301 47.9804 119.751 48.1166C120.201 48.2521 120.79 48.3308 121.521 48.3536C122.389 48.3806 123.041 48.3384 123.476 48.2281C123.91 48.1166 124.22 47.9681 124.403 47.7803C124.588 47.5943 124.683 47.3754 124.69 47.1237ZM125.001 47.0885C125.016 47.8953 124.69 48.5391 124.026 49.0214C123.361 49.5055 122.542 49.7303 121.567 49.7015C120.733 49.6763 120.006 49.4656 119.385 49.0701C118.561 48.5485 118.163 47.8337 118.191 46.9265C118.218 46.0181 118.641 45.3286 119.457 44.8557C120.102 44.4831 120.859 44.3099 121.726 44.3364C122.702 44.3669 123.507 44.6474 124.142 45.1772C124.777 45.7083 125.064 46.3444 125.001 47.0885Z" fill="white"/>
<path d="M119.813 54.0862L117.568 53.5275L118.29 49.0989L118.466 49.1265L118.439 49.2937C118.416 49.4375 118.43 49.5595 118.483 49.6587C118.517 49.7291 118.586 49.7908 118.689 49.8441C118.76 49.8829 118.96 49.9286 119.285 49.982L123.55 50.6762C123.882 50.7308 124.091 50.7514 124.178 50.7367C124.265 50.7244 124.347 50.6821 124.423 50.6093C124.499 50.5372 124.548 50.4315 124.57 50.2913L124.598 50.1258L124.774 50.1546L124.341 52.8146L124.163 52.7858L124.199 52.5693C124.223 52.4243 124.208 52.3017 124.155 52.2025C124.121 52.1315 124.053 52.0699 123.95 52.0142C123.878 51.9754 123.679 51.9279 123.355 51.8763L119.223 51.2038C118.89 51.1492 118.677 51.1298 118.582 51.1445C118.487 51.1586 118.409 51.205 118.351 51.2848C118.312 51.3405 118.274 51.4866 118.235 51.7213L118.167 52.1374C118.125 52.402 118.149 52.6332 118.241 52.8292C118.334 53.0264 118.501 53.2089 118.741 53.3808C118.981 53.5516 119.346 53.7364 119.839 53.9348L119.813 54.0862Z" fill="white"/>
<path d="M122.938 57.8151C123.072 57.3726 122.88 56.9478 122.363 56.5388C121.937 56.2049 121.272 55.9015 120.369 55.6281C119.297 55.3035 118.461 55.2085 117.859 55.3452C117.439 55.4368 117.174 55.6668 117.064 56.0294C116.991 56.2753 117.005 56.5036 117.11 56.7142C117.245 56.983 117.512 57.2418 117.911 57.4894C118.31 57.7376 118.858 57.9677 119.558 58.1777C120.39 58.4295 121.03 58.5592 121.478 58.565C121.927 58.5709 122.265 58.5069 122.491 58.3749C122.716 58.2423 122.866 58.0545 122.938 57.8151ZM123.248 57.862C123.052 58.6437 122.569 59.1806 121.802 59.4746C121.035 59.7686 120.185 59.775 119.252 59.4916C118.454 59.251 117.807 58.8578 117.309 58.3156C116.65 57.5974 116.451 56.804 116.714 55.9355C116.977 55.0653 117.564 54.5078 118.475 54.2649C119.193 54.0724 119.97 54.1012 120.801 54.3529C121.735 54.6363 122.439 55.1164 122.914 55.7924C123.391 56.4701 123.501 57.1596 123.248 57.862Z" fill="white"/>
<path d="M120.193 65.5444L118.095 64.5621L118.153 64.4377C118.797 64.5551 119.339 64.5334 119.778 64.3708C120.218 64.2089 120.521 63.9489 120.688 63.591C120.848 63.2483 120.857 62.9061 120.713 62.5617C120.569 62.2178 120.295 61.8927 119.892 61.5888C119.488 61.2854 119.052 61.0225 118.58 60.8024C118.009 60.5354 117.485 60.3524 117.006 60.2544C116.529 60.1575 116.134 60.1769 115.824 60.3136C115.513 60.4504 115.285 60.6769 115.136 60.9937C115.084 61.1035 115.048 61.2249 115.023 61.3552C115.001 61.4849 114.99 61.624 114.991 61.7742L116.23 62.3522C116.463 62.4619 116.621 62.52 116.701 62.5277C116.781 62.5347 116.867 62.513 116.959 62.4608C117.051 62.4103 117.122 62.3293 117.173 62.2178L117.229 62.1005L117.392 62.1767L116.351 64.4013L116.189 64.325C116.253 64.1496 116.278 64.0176 116.263 63.9307C116.249 63.8427 116.198 63.7564 116.11 63.6719C116.063 63.625 115.932 63.551 115.716 63.4495L114.478 62.8709C114.445 62.4983 114.459 62.1345 114.522 61.7777C114.583 61.4209 114.694 61.0724 114.852 60.7326C115.055 60.2995 115.301 59.9739 115.589 59.7585C115.877 59.5443 116.197 59.3847 116.549 59.282C116.902 59.1805 117.265 59.1406 117.635 59.1635C118.112 59.1934 118.602 59.3266 119.103 59.5613C119.997 59.9797 120.642 60.5765 121.031 61.3482C121.423 62.121 121.447 62.8733 121.102 63.608C120.997 63.8351 120.877 64.0287 120.745 64.1895C120.676 64.2781 120.534 64.4072 120.321 64.578C120.107 64.7475 119.991 64.8538 119.973 64.8937C119.942 64.9565 119.944 65.0292 119.98 65.1114C120.015 65.1923 120.104 65.295 120.251 65.4189L120.193 65.5444Z" fill="white"/>
<path d="M116.824 70.61L116.674 70.512C116.74 70.3571 116.757 70.2145 116.724 70.0871C116.678 69.9093 116.473 69.5432 116.113 68.9904L114.711 66.7775L113.377 65.9126C113.094 65.7289 112.908 65.6262 112.824 65.6045C112.741 65.5828 112.65 65.5887 112.553 65.6215C112.456 65.655 112.371 65.7289 112.298 65.8416L112.144 66.0787L111.994 65.9818L113.535 63.6012L113.686 63.698L113.542 63.9192C113.461 64.0454 113.425 64.1627 113.435 64.2725C113.438 64.3511 113.475 64.4356 113.547 64.5277C113.598 64.5917 113.761 64.7143 114.037 64.8933L115.144 65.6104L118.154 66.1414C118.748 66.2453 119.113 66.2829 119.248 66.2565C119.384 66.2271 119.496 66.1473 119.587 66.0135L119.738 66.1115L118.421 68.1448L118.271 68.0468L118.329 67.9559C118.409 67.8338 118.441 67.7323 118.427 67.6536C118.413 67.5738 118.38 67.5181 118.328 67.4852C118.231 67.4224 117.931 67.3462 117.43 67.2581L115.108 66.8433L116.276 68.6829C116.561 69.1365 116.77 69.4064 116.902 69.4921C116.976 69.5396 117.053 69.5514 117.138 69.5285C117.251 69.5021 117.376 69.3976 117.512 69.2175L117.663 69.3143L116.824 70.61Z" fill="white"/>
<path d="M83.366 12.6475C65.054 12.6475 50.209 27.4925 50.209 45.8045C50.209 64.1164 65.054 78.9614 83.366 78.9614C101.678 78.9614 116.523 64.1164 116.523 45.8045C116.523 27.4925 101.678 12.6475 83.366 12.6475ZM83.366 13.729C101.052 13.729 115.441 28.1181 115.441 45.8045C115.441 63.4908 101.052 77.8788 83.366 77.8788C65.6796 77.8788 51.2905 63.4908 51.2905 45.8045C51.2905 28.1181 65.6796 13.729 83.366 13.729Z" fill="white"/>
<path d="M59.1096 63.7836L58.6836 63.2696L61.2145 61.1717L61.6388 61.6858L60.6107 62.539L62.4157 62.6247L62.9661 63.2901L61.0995 63.1451L60.4839 65.4454L59.937 64.7841L60.4182 63.1035L59.9658 63.0736L59.1096 63.7836Z" fill="white"/>
<path d="M64.5578 64.8293L65.0056 65.2623L62.7194 67.626L62.2399 67.1601L62.9347 64.5693L62.9283 64.5628L61.2975 66.247L60.8516 65.8139L63.1366 63.4514L63.6407 63.9402L62.96 66.467L62.9658 66.4747L64.5578 64.8293Z" fill="white"/>
<path d="M64.7758 68.6514C65.061 68.8703 65.6032 68.9988 66.1648 68.2682C66.727 67.5382 66.4647 67.0489 66.1789 66.8282C65.8937 66.6093 65.3527 66.4826 64.7905 67.212C64.2289 67.9414 64.4901 68.4325 64.7758 68.6514ZM66.5345 66.3676C66.8684 66.6252 67.6353 67.4514 66.6929 68.6743C65.7505 69.8972 64.7553 69.3703 64.4214 69.1121C64.0863 68.8545 63.3194 68.0282 64.2618 66.8065C65.2042 65.5824 66.1994 66.1111 66.5345 66.3676Z" fill="white"/>
<path d="M67.5839 67.3329L68.1971 67.6932C67.6385 69.4536 67.5575 69.6714 67.4173 70.0246L67.4243 70.0293C67.6479 69.7617 67.8597 69.4982 69.0245 68.1797L69.6354 68.5376C69.0427 70.2834 68.9823 70.4489 68.8274 70.8532L68.835 70.8579C69.0392 70.6161 69.2293 70.3972 70.5015 69.047L71.0848 69.3891L68.6437 71.7698L68.0921 71.4459C68.6255 69.8891 68.7382 69.5827 68.9653 68.9842L68.9582 68.9795C68.5539 69.4754 68.3873 69.6543 67.233 70.9412L66.6973 70.6267L67.5839 67.3329Z" fill="white"/>
<path d="M70.8597 72.1845L72.3114 72.8183L72.0732 73.364L70.0117 72.4627L71.3291 69.4529L71.9388 69.7194L70.8597 72.1845Z" fill="white"/>
<path d="M75.7483 71.7435L74.1393 71.2183L73.9263 71.8767L75.4033 72.359L75.2231 72.9118L73.7461 72.4306L73.4826 73.241L75.1627 73.7891L74.9825 74.343L72.6816 73.5919L73.6992 70.4625L75.9284 71.1895L75.7483 71.7435Z" fill="white"/>
<path d="M76.4687 74.1113L77.1036 74.2445C77.6335 74.3554 77.9287 73.8413 78.039 73.3126C78.2385 72.362 77.8148 72.1942 77.5367 72.1349L76.9112 72.004L76.4687 74.1113ZM76.3889 71.3134L77.7667 71.6027C78.8189 71.8239 78.8423 72.7927 78.715 73.4036C78.5701 74.0931 78.0959 75.0331 77.0649 74.8166L75.7129 74.5332L76.3889 71.3134Z" fill="white"/>
<path d="M80.7384 73.568L82.0664 73.6912L81.9009 75.4563L81.4584 75.4152L81.4303 74.9992C81.2431 75.184 80.972 75.4575 80.3922 75.4041C79.627 75.3331 78.9845 74.704 79.0919 73.5545C79.1758 72.6643 79.7321 71.865 80.7989 71.9642H80.8089C81.7824 72.0534 82.1051 72.7417 82.0992 73.1965L81.435 73.1349C81.4473 73.0081 81.2595 72.5762 80.7907 72.5334C80.3177 72.49 79.8471 72.7863 79.7684 73.626C79.6851 74.5209 80.137 74.7967 80.5882 74.8384C80.7349 74.8513 81.2272 74.8366 81.4256 74.1888L80.6862 74.1207L80.7384 73.568Z" fill="white"/>
<path d="M85.0258 72.7302L83.3322 72.7554L83.3434 73.4473L84.9002 73.4232L84.9096 74.0065L83.3528 74.0294L83.3674 74.882L85.1373 74.8544L85.1478 75.436L82.7249 75.4735L82.668 72.1833L85.0164 72.1481L85.0258 72.7302Z" fill="white"/>
<path d="M87.7452 75.1549L87.0844 75.2406L86.6602 71.9797L87.3203 71.8935L87.7452 75.1549Z" fill="white"/>
<path d="M88.7594 73.9718C88.8005 74.1496 88.9577 74.4735 89.5275 74.3556C89.8362 74.2922 90.1636 74.1461 90.0938 73.8051C90.0427 73.5534 89.7939 73.5352 89.4465 73.5217L89.0945 73.5112C88.5657 73.493 88.0552 73.4759 87.9091 72.7671C87.8352 72.4091 87.8921 71.7378 88.9055 71.5295C89.8626 71.3335 90.2522 71.9274 90.3367 72.3193L89.71 72.449C89.6643 72.3088 89.541 71.9796 88.9724 72.0958C88.7242 72.1462 88.4472 72.3012 88.5077 72.5928C88.5599 72.8445 88.7705 72.8563 88.9084 72.8627L89.7077 72.8991C90.1566 72.9185 90.585 73.0159 90.7035 73.5957C90.903 74.5645 89.9641 74.8461 89.6895 74.9019C88.5499 75.1354 88.2148 74.4993 88.1327 74.1003L88.7594 73.9718Z" fill="white"/>
<path d="M93.4526 71.918C93.9197 71.7485 93.7947 71.404 93.7454 71.2661C93.6351 70.9651 93.4273 70.8982 93.04 71.0384L92.543 71.2186L92.8734 72.1287L93.4526 71.918ZM93.4708 73.78L92.8452 74.0071L91.7227 70.9117L93.0923 70.4158C93.6714 70.204 94.1614 70.4616 94.3815 71.0689C94.4842 71.3494 94.5898 72.1105 93.7841 72.4022L93.0664 72.6633L93.4708 73.78Z" fill="white"/>
<path d="M96.8456 71.835C97.1683 71.6766 97.5204 71.247 97.1131 70.4232C96.7053 69.5969 96.1502 69.6151 95.828 69.7747C95.5053 69.9332 95.1532 70.3615 95.561 71.1866C95.9683 72.0116 96.524 71.9935 96.8456 71.835ZM95.5692 69.2525C95.9477 69.0659 97.0257 68.7443 97.7093 70.128C98.393 71.5123 97.4817 72.1701 97.1032 72.3579C96.7247 72.5427 95.6479 72.8655 94.9642 71.4818C94.28 70.0969 95.1919 69.4397 95.5692 69.2525Z" fill="white"/>
<path d="M96.9023 68.7372L97.495 68.3464C98.8247 69.6239 98.9832 69.7934 99.2384 70.0751L99.2455 70.0704C99.1052 69.7506 98.9626 69.4449 98.296 67.8177L98.8863 67.4286C100.188 68.7302 100.31 68.8581 100.603 69.175L100.61 69.1691C100.483 68.8798 100.372 68.614 99.7243 66.8753L100.287 66.5044L101.343 69.7436L100.809 70.0957C99.651 68.9308 99.4256 68.6949 98.9902 68.2267L98.9832 68.2314C99.2478 68.8123 99.3352 69.0394 99.9784 70.6437L99.4597 70.9858L96.9023 68.7372Z" fill="white"/>
<path d="M102.618 65.2373L101.327 66.3358L101.776 66.8616L102.961 65.8529L103.339 66.2959L102.153 67.3034L102.705 67.953L104.054 66.8052L104.431 67.2477L102.584 68.818L100.451 66.3176L102.24 64.7948L102.618 65.2373Z" fill="white"/>
<path d="M104.625 64.4238C104.863 64.1721 104.889 63.9655 104.653 63.7402C104.528 63.6205 104.29 63.4984 104.021 63.7824L103.449 64.3851L104.087 64.9913L104.625 64.4238ZM102.588 64.4684L103.698 63.2989C104.281 62.6834 104.857 63.0143 105.062 63.2103C105.325 63.4597 105.429 63.8036 105.29 64.1069C105.557 63.999 105.729 63.9655 106.173 64.3874C106.521 64.7202 106.609 64.8011 106.745 64.736L106.809 64.7964L106.301 65.331C106.157 65.2559 106.017 65.1579 105.77 64.9255C105.446 64.6163 105.301 64.516 104.962 64.8739L104.488 65.3721L105.42 66.2588L104.972 66.7329L102.588 64.4684Z" fill="white"/>
<path d="M83.3679 0.514381C58.3946 0.514381 38.0781 20.8308 38.0781 45.8042C38.0781 70.7775 58.3946 91.094 83.3679 91.094C108.341 91.094 128.658 70.7775 128.658 45.8042C128.658 20.8308 108.341 0.514381 83.3679 0.514381ZM83.3679 1.59704C107.783 1.59704 127.576 21.3883 127.576 45.8042C127.576 70.2213 107.783 90.0125 83.3679 90.0125C58.952 90.0125 39.1596 70.2213 39.1596 45.8042C39.1596 21.3883 58.952 1.59704 83.3679 1.59704Z" fill="white"/>
</svg>
